;TYPE=PLATED
;Layer: PTH_Through
;EasyEDA Pro v2.2.46.11, 2026-04-01 22:30:00
;Gerber Generator version 0.3
M48
METRIC,LZ,0000.00000
;Hole size 1 = 0.30480 METRIC
T01C0.30480
;Hole size 2 = 0.30500 METRIC
T02C0.30500
;Hole size 3 = 0.50002 METRIC
T03C0.50002
;Hole size 4 = 1.10002 METRIC
T04C1.10002
%
G05
G90
T01
X16.87886Y16.06003
X16.87886Y17.06002
X14.87912Y16.06028
X14.87912Y17.06002
X16.87886Y15.06003
X14.87886Y15.06003
X15.87886Y16.06003
X15.87937Y15.06054
X15.87886Y17.06002
T02
X20.828Y14.986
X28.7655Y13.3985
X20.828Y13.589
X29.083Y11.811
X12.7Y9.906
X16.383Y10.922
X6.78361Y14.40361
X3.302Y14.605
X10.922Y9.271
X14.732Y10.795
X10.287Y12.065
X9.652Y12.65262
X3.556Y11.557
X6.30942Y10.77168
X3.937Y17.14503
X6.604Y17.018
X8.509Y8.255
X9.779Y14.859
X8.763Y7.366
X10.668Y14.478
X4.064Y19.55803
X10.922Y16.129
X1.524Y5.969
X10.12845Y17.62145
X17.907Y7.239
X19.812Y8.382
X22.479Y12.065
X19.5346Y12.7
X22.97836Y16.637
X20.32Y17.145
X18.542Y14.224
X9.144Y24.257
X7.874Y21.971
X25.146Y26.289
X11.176Y18.288
X22.733Y19.09851
X16.764Y20.32
X24.003Y19.09851
X15.875Y20.701
X12.192Y20.828
X13.97Y20.574
X17.399Y24.511
X17.653Y21.971
X30.734Y7.493
X32.74588Y17.83665
X32.893Y16.256
X31.623Y6.985
X31.115Y2.032
X32.512Y8.001
X22.479Y17.272
X20.447Y19.304
X28.46349Y8.509
X30.0355Y9.3345
X10.922Y19.558
X10.922Y22.098
X16.637Y23.749
X19.3675Y23.8125
X30.734Y14.986
X32.004Y13.589
X22.225Y18.034
X24.003Y17.653
X13.843Y18.161
X20.066Y22.733
T03
X36.56388Y9.31504G85X37.26386Y9.31504
X36.56388Y2.11496G85X37.26386Y2.11496
X33.09402Y2.11501G85X33.79399Y2.11501
X33.09402Y9.31499G85X33.79399Y9.31499
T04
X5.20695Y3.175
X5.20708Y5.715
X5.20708Y8.255
X5.20708Y10.795
X5.20708Y13.335
X5.20703Y23.495
X5.20703Y20.955
X5.20703Y18.415
X5.20703Y15.875
X2.66703Y15.875
X2.66703Y18.415
X2.66703Y20.955
X2.66703Y23.495
X2.66708Y13.335
X2.66708Y10.795
X2.66708Y8.255
X2.66708Y5.715
X2.66695Y3.175
M30