G04 Layer: TopLayer*
G04 EasyEDA Pro v2.2.46.11, 2026-04-01 22:30:00*
G04 Gerber Generator version 0.3*
G04 Scale: 100 percent, Rotated: No, Reflected: No*
G04 Dimensions in millimeters*
G04 Leading zeros omitted, absolute positions, 4 integers and 5 decimals*
G04 Generated by one-click*
%FSLAX45Y45*%
%MOMM*%
%ADD10C,0.2032*%
%ADD11C,0.254*%
%ADD12R,0.8X0.9*%
%ADD13R,0.9X0.8*%
%ADD14R,0.8X0.86401*%
%ADD15R,0.80648X0.86401*%
%ADD16R,0.8612X0.80648*%
%ADD17R,0.86401X0.80648*%
%ADD18C,1.6*%
%ADD19R,0.532X1.04501*%
%ADD20O,1.865X0.63*%
%ADD21R,2.2X3.09999*%
%ADD22O,0.55999X1.74501*%
%ADD23O,2.25001X0.63*%
%ADD24R,0.665X0.2*%
%ADD25R,0.2X0.665*%
%ADD26R,3.99999X3.99999*%
%ADD27R,2.15001X0.4*%
%ADD28O,1.7X0.9*%
%ADD29C,0.6096*%
%ADD30C,0.61*%
%ADD31C,0.508*%
G75*


G04 Copper Start*
G36*
G01X3228887Y1394186D02*
G01X3238501Y1395500D01*
G01X3247409Y1399347D01*
G01X3254958Y1405444D01*
G01X3260593Y1413344D01*
G01X3263900Y1422466D01*
G01X3266935Y1413873D01*
G01X3272041Y1406324D01*
G01X3278886Y1400308D01*
G01X3278886Y1367304D01*
G01X3273591Y1376690D01*
G01X3265744Y1384077D01*
G01X3256054Y1388795D01*
G01X3245400Y1390416D01*
G01X3174389Y1390416D01*
G01X3178158Y1394186D01*
G01X3228887Y1394186D01*
G37*
G36*
G01X3099604Y1142411D02*
G01X3103924Y1157431D01*
G01X3104663Y1173043D01*
G01X3101783Y1188404D01*
G01X3095437Y1202687D01*
G01X3085968Y1215122D01*
G01X3073888Y1225037D01*
G01X3059846Y1231900D01*
G01X3073399Y1238452D01*
G01X3085157Y1247851D01*
G01X3094533Y1259629D01*
G01X3101056Y1273196D01*
G01X3104401Y1287873D01*
G01X3104401Y1302927D01*
G01X3101056Y1317604D01*
G01X3094533Y1331171D01*
G01X3085157Y1342949D01*
G01X3073399Y1352348D01*
G01X3059846Y1358900D01*
G01X3072814Y1365087D01*
G01X3084174Y1373886D01*
G01X3125221Y1373886D01*
G01X3121024Y1364647D01*
G01X3119586Y1354602D01*
G01X3119586Y1274602D01*
G01X3121531Y1262962D01*
G01X3127153Y1252586D01*
G01X3135843Y1244600D01*
G01X3127153Y1236614D01*
G01X3121531Y1226238D01*
G01X3119586Y1214598D01*
G01X3119586Y1162393D01*
G01X3099604Y1142411D01*
G37*
G36*
G01X3091363Y1589786D02*
G01X3112426Y1589786D01*
G01X3112426Y1582400D01*
G01X3113951Y1572058D01*
G01X3118398Y1562598D01*
G01X3125387Y1554824D01*
G01X3134324Y1549400D01*
G01X3125387Y1543976D01*
G01X3118398Y1536202D01*
G01X3113951Y1526742D01*
G01X3112426Y1516400D01*
G01X3112426Y1470914D01*
G01X3084174Y1470914D01*
G01X3072814Y1479713D01*
G01X3059846Y1485900D01*
G01X3073989Y1492828D01*
G01X3086136Y1502853D01*
G01X3095621Y1515425D01*
G01X3101925Y1529858D01*
G01X3104702Y1545360D01*
G01X3103802Y1561084D01*
G01X3099273Y1576167D01*
G01X3091363Y1589786D01*
G37*
G36*
G01X3068798Y871686D02*
G01X3080438Y873631D01*
G01X3090814Y879253D01*
G01X3098800Y887943D01*
G01X3106786Y879253D01*
G01X3117162Y873631D01*
G01X3128802Y871686D01*
G01X3181007Y871686D01*
G01X3202686Y850007D01*
G01X3202686Y845310D01*
G01X3193511Y832803D01*
G01X3187492Y818507D01*
G01X3184959Y803204D01*
G01X3186050Y787731D01*
G01X3190706Y772934D01*
G01X3198671Y759624D01*
G01X3209511Y748529D01*
G01X3222632Y740255D01*
G01X3237315Y735256D01*
G01X3252759Y733804D01*
G01X3251127Y727747D01*
G01X3250578Y721497D01*
G01X3250578Y681497D01*
G01X3250685Y678724D01*
G01X3228573Y700836D01*
G01X3226166Y716350D01*
G01X3220180Y730864D01*
G01X3210950Y743563D01*
G01X3198993Y753737D01*
G01X3184980Y760815D01*
G01X3169695Y764400D01*
G01X3153996Y764292D01*
G01X3138762Y760496D01*
G01X3135100Y773604D01*
G01X3128839Y785688D01*
G01X3120242Y796240D01*
G01X3109673Y804814D01*
G01X3097576Y811050D01*
G01X3084460Y814685D01*
G01X3070879Y815566D01*
G01X3057404Y813656D01*
G01X3044602Y809035D01*
G01X3033014Y801898D01*
G01X3033014Y838200D01*
G01X3031458Y850388D01*
G01X3026891Y861793D01*
G01X3019604Y871686D01*
G01X3068798Y871686D01*
G37*
G36*
G01X2723914Y594300D02*
G01X2723914Y656673D01*
G01X2730759Y645398D01*
G01X2739671Y635674D01*
G01X2750309Y627875D01*
G01X2762263Y622300D01*
G01X2749748Y616389D01*
G01X2738706Y608043D01*
G01X2729604Y597615D01*
G01X2722827Y585546D01*
G01X2723914Y594300D01*
G37*
G36*
G01X2432286Y656673D02*
G01X2432286Y594300D01*
G01X2433373Y585546D01*
G01X2426596Y597615D01*
G01X2417494Y608043D01*
G01X2406452Y616389D01*
G01X2393937Y622300D01*
G01X2405891Y627875D01*
G01X2416529Y635674D01*
G01X2425441Y645398D01*
G01X2432286Y656673D01*
G37*
G36*
G01X2343519Y1615631D02*
G01X2353908Y1628295D01*
G01X2360876Y1643119D01*
G01X2363998Y1659199D01*
G01X2369417Y1666518D01*
G01X2372816Y1674967D01*
G01X2373974Y1684000D01*
G01X2373974Y1770400D01*
G01X2372566Y1780345D01*
G01X2368452Y1789507D01*
G01X2361955Y1797167D01*
G01X2353587Y1802721D01*
G01X2364113Y1814635D01*
G01X2371367Y1828781D01*
G01X2374900Y1844281D01*
G01X2377363Y1831980D01*
G01X2382186Y1820399D01*
G01X2389181Y1809985D01*
G01X2398078Y1801141D01*
G01X2395171Y1793250D01*
G01X2394184Y1784900D01*
G01X2394184Y1694900D01*
G01X2395937Y1683833D01*
G01X2401024Y1673849D01*
G01X2408947Y1665926D01*
G01X2418931Y1660839D01*
G01X2429998Y1659086D01*
G01X2509998Y1659086D01*
G01X2521638Y1661031D01*
G01X2532014Y1666653D01*
G01X2540000Y1675343D01*
G01X2547986Y1666653D01*
G01X2558362Y1661031D01*
G01X2570002Y1659086D01*
G01X2650002Y1659086D01*
G01X2661069Y1660839D01*
G01X2671053Y1665926D01*
G01X2678976Y1673849D01*
G01X2684063Y1683833D01*
G01X2685816Y1694900D01*
G01X2685816Y1784900D01*
G01X2685747Y1787135D01*
G01X2691192Y1786799D01*
G01X2862538Y1615452D01*
G01X2847379Y1610555D01*
G01X2833795Y1602231D01*
G01X2822548Y1590949D01*
G01X2814267Y1577339D01*
G01X2809416Y1562164D01*
G01X2808267Y1546275D01*
G01X2810885Y1530560D01*
G01X2817122Y1515901D01*
G01X2826630Y1503118D01*
G01X2838875Y1492927D01*
G01X2853173Y1485900D01*
G01X2838714Y1478768D01*
G01X2826367Y1468402D01*
G01X2816838Y1455398D01*
G01X2810674Y1440501D01*
G01X2808230Y1424566D01*
G01X2809644Y1408506D01*
G01X2814837Y1393243D01*
G01X2823510Y1379653D01*
G01X2815711Y1366236D01*
G01X2811245Y1351373D01*
G01X2810355Y1335879D01*
G01X2813091Y1320602D01*
G01X2808980Y1305649D01*
G01X2808400Y1290151D01*
G01X2811382Y1274932D01*
G01X2817768Y1260800D01*
G01X2827219Y1248504D01*
G01X2839233Y1238697D01*
G01X2853173Y1231900D01*
G01X2839079Y1225004D01*
G01X2826965Y1215034D01*
G01X2817489Y1202529D01*
G01X2811164Y1188171D01*
G01X2808335Y1172739D01*
G01X2809155Y1157070D01*
G01X2813580Y1142018D01*
G01X2821370Y1128398D01*
G01X2832101Y1116952D01*
G01X2845190Y1108301D01*
G01X2859926Y1102915D01*
G01X2875509Y1101086D01*
G01X3037510Y1101086D01*
G01X3050764Y1102404D01*
G01X3063499Y1106306D01*
G01X3047107Y1089914D01*
G01X2394995Y1089914D01*
G01X2371005Y1113904D01*
G01X2382904Y1124950D01*
G01X2391812Y1138523D01*
G01X2397211Y1153835D01*
G01X2398786Y1169993D01*
G01X2396447Y1186059D01*
G01X2390330Y1201098D01*
G01X2380790Y1214235D01*
G01X2368382Y1224705D01*
G01X2353827Y1231900D01*
G01X2367381Y1238452D01*
G01X2379139Y1247851D01*
G01X2388514Y1259629D01*
G01X2395038Y1273196D01*
G01X2398383Y1287873D01*
G01X2398383Y1302927D01*
G01X2395038Y1317604D01*
G01X2388514Y1331171D01*
G01X2379139Y1342949D01*
G01X2367381Y1352348D01*
G01X2353827Y1358900D01*
G01X2367381Y1365452D01*
G01X2379139Y1374851D01*
G01X2388514Y1386629D01*
G01X2395038Y1400196D01*
G01X2398383Y1414873D01*
G01X2398383Y1429927D01*
G01X2395038Y1444604D01*
G01X2388514Y1458171D01*
G01X2379139Y1469949D01*
G01X2367381Y1479348D01*
G01X2353827Y1485900D01*
G01X2368198Y1492975D01*
G01X2380490Y1503245D01*
G01X2390008Y1516128D01*
G01X2396212Y1530895D01*
G01X2398751Y1546711D01*
G01X2397483Y1562678D01*
G01X2392477Y1577893D01*
G01X2384019Y1591495D01*
G01X2372586Y1602714D01*
G01X2358826Y1610914D01*
G01X2343519Y1615631D01*
G37*
G36*
G01X2247900Y1844281D02*
G01X2250877Y1830374D01*
G01X2256860Y1817471D01*
G01X2265552Y1806214D01*
G01X2257513Y1806214D01*
G01X2246037Y1804326D01*
G01X2235772Y1798861D01*
G01X2227799Y1790394D01*
G01X2219225Y1786994D01*
G01X2214250Y1794199D01*
G01X2227097Y1803175D01*
G01X2237368Y1815012D01*
G01X2244445Y1828995D01*
G01X2247900Y1844281D01*
G37*
G36*
G01X1833414Y817098D02*
G01X1833414Y897098D01*
G01X1831469Y908738D01*
G01X1825847Y919114D01*
G01X1817157Y927100D01*
G01X1821993Y930880D01*
G01X1826112Y935430D01*
G01X1828471Y925331D01*
G01X1833625Y916331D01*
G01X1841141Y909185D01*
G01X1850390Y904492D01*
G01X1850390Y840578D01*
G01X1842913Y832716D01*
G01X1838133Y822976D01*
G01X1836490Y812251D01*
G01X1836490Y771867D01*
G01X1826319Y779836D01*
G01X1814795Y785682D01*
G01X1822488Y791344D01*
G01X1828410Y798838D01*
G01X1832140Y807631D01*
G01X1833414Y817098D01*
G37*
G36*
G01X2165756Y2656586D02*
G01X2168311Y2646392D01*
G01X2173715Y2637378D01*
G01X2181502Y2630321D01*
G01X2191002Y2625828D01*
G01X2201398Y2624286D01*
G01X2281398Y2624286D01*
G01X2293038Y2626231D01*
G01X2303414Y2631853D01*
G01X2311400Y2640543D01*
G01X2319386Y2631853D01*
G01X2329762Y2626231D01*
G01X2341402Y2624286D01*
G01X2389886Y2624286D01*
G01X2389886Y2585055D01*
G01X2382536Y2574443D01*
G01X2377471Y2562569D01*
G01X2374900Y2549919D01*
G01X2371465Y2565148D01*
G01X2364435Y2579088D01*
G01X2354231Y2590904D01*
G01X2341462Y2599888D01*
G01X2326895Y2605503D01*
G01X2311400Y2607413D01*
G01X2295905Y2605503D01*
G01X2281338Y2599888D01*
G01X2268569Y2590904D01*
G01X2258365Y2579088D01*
G01X2251335Y2565148D01*
G01X2247900Y2549919D01*
G01X2244703Y2564472D01*
G01X2238219Y2577888D01*
G01X2228801Y2589433D01*
G01X2216961Y2598480D01*
G01X2203347Y2604535D01*
G01X2188699Y2607268D01*
G01X2173817Y2606529D01*
G01X2159512Y2602359D01*
G01X2146564Y2594986D01*
G01X2135679Y2584811D01*
G01X2127450Y2572389D01*
G01X2122326Y2558398D01*
G01X2120586Y2543599D01*
G01X2120586Y2519380D01*
G01X2119844Y2518653D01*
G01X2073895Y2472705D01*
G01X2066186Y2462657D01*
G01X2061339Y2450956D01*
G01X2059686Y2438400D01*
G01X2059686Y2393716D01*
G01X1987000Y2393716D01*
G01X1975933Y2391963D01*
G01X1965949Y2386876D01*
G01X1958026Y2378953D01*
G01X1952939Y2368969D01*
G01X1951186Y2357902D01*
G01X1951186Y2277902D01*
G01X1953131Y2266262D01*
G01X1958753Y2255886D01*
G01X1967443Y2247900D01*
G01X1960603Y2242102D01*
G01X1955418Y2234786D01*
G01X1952213Y2226412D01*
G01X1946687Y2226412D01*
G01X1943482Y2234786D01*
G01X1938297Y2242102D01*
G01X1931457Y2247900D01*
G01X1940147Y2255886D01*
G01X1945769Y2266262D01*
G01X1947714Y2277902D01*
G01X1947714Y2357902D01*
G01X1945961Y2368969D01*
G01X1940874Y2378953D01*
G01X1932951Y2386876D01*
G01X1922967Y2391963D01*
G01X1911900Y2393716D01*
G01X1910015Y2393716D01*
G01X1913785Y2397486D01*
G01X1964190Y2397486D01*
G01X1975257Y2399239D01*
G01X1985241Y2404326D01*
G01X1993164Y2412249D01*
G01X1998251Y2422233D01*
G01X2000004Y2433300D01*
G01X2000004Y2519700D01*
G01X1998251Y2530767D01*
G01X1993164Y2540751D01*
G01X1985241Y2548674D01*
G01X1975257Y2553761D01*
G01X1964190Y2555514D01*
G01X1884190Y2555514D01*
G01X1872557Y2553572D01*
G01X1862185Y2547957D01*
G01X1854200Y2539277D01*
G01X1846215Y2547957D01*
G01X1835843Y2553572D01*
G01X1824210Y2555514D01*
G01X1798623Y2555514D01*
G01X1899695Y2656586D01*
G01X2165756Y2656586D01*
G37*
G36*
G01X1823700Y1806028D02*
G01X1821947Y1817095D01*
G01X1816860Y1827079D01*
G01X1808937Y1835002D01*
G01X1798953Y1840089D01*
G01X1787886Y1841842D01*
G01X1730351Y1841842D01*
G01X1737452Y1846008D01*
G01X1743747Y1851314D01*
G01X1760091Y1867658D01*
G01X1767800Y1877705D01*
G01X1777870Y1877705D01*
G01X1787873Y1879130D01*
G01X1797876Y1877705D01*
G01X1817875Y1877705D01*
G01X1827878Y1879130D01*
G01X1837881Y1877705D01*
G01X1857880Y1877705D01*
G01X1859605Y1877747D01*
G01X1859563Y1876022D01*
G01X1859563Y1856022D01*
G01X1860988Y1846020D01*
G01X1859563Y1836017D01*
G01X1859563Y1816017D01*
G01X1860988Y1806015D01*
G01X1859563Y1796012D01*
G01X1859563Y1776012D01*
G01X1860985Y1766023D01*
G01X1859563Y1756033D01*
G01X1859563Y1736033D01*
G01X1860988Y1726030D01*
G01X1859563Y1716028D01*
G01X1859563Y1696028D01*
G01X1860988Y1686025D01*
G01X1859563Y1676023D01*
G01X1859563Y1656023D01*
G01X1860988Y1646020D01*
G01X1859563Y1636018D01*
G01X1859563Y1616018D01*
G01X1860988Y1606015D01*
G01X1859563Y1596013D01*
G01X1859563Y1576013D01*
G01X1860985Y1566023D01*
G01X1859563Y1556033D01*
G01X1859563Y1536033D01*
G01X1860988Y1526031D01*
G01X1859563Y1516028D01*
G01X1859563Y1496028D01*
G01X1860379Y1488426D01*
G01X1847771Y1488402D01*
G01X1835396Y1485992D01*
G01X1823700Y1481284D01*
G01X1823700Y1806028D01*
G37*
G36*
G01X1676105Y2432996D02*
G01X1680742Y2421136D01*
G01X1687560Y2410381D01*
G01X1696308Y2401127D01*
G01X1706663Y2393716D01*
G01X1636825Y2393716D01*
G01X1676105Y2432996D01*
G37*
G36*
G01X1579414Y2357902D02*
G01X1577976Y2367947D01*
G01X1573779Y2377186D01*
G01X1588521Y2377186D01*
G01X1584324Y2367947D01*
G01X1582886Y2357902D01*
G01X1582886Y2294312D01*
G01X1579414Y2294312D01*
G01X1579414Y2357902D01*
G37*
G36*
G01X1414314Y2357902D02*
G01X1412876Y2367947D01*
G01X1408679Y2377186D01*
G01X1423421Y2377186D01*
G01X1419224Y2367947D01*
G01X1417786Y2357902D01*
G01X1417786Y2287812D01*
G01X1414314Y2285606D01*
G01X1414314Y2357902D01*
G37*
G36*
G01X1316184Y1456023D02*
G01X1316184Y1476023D01*
G01X1314758Y1486026D01*
G01X1316184Y1496028D01*
G01X1316184Y1516028D01*
G01X1314758Y1526031D01*
G01X1316184Y1536033D01*
G01X1316184Y1556033D01*
G01X1314762Y1566023D01*
G01X1316184Y1576013D01*
G01X1316184Y1596013D01*
G01X1314758Y1606015D01*
G01X1316184Y1616018D01*
G01X1316184Y1636018D01*
G01X1314758Y1646020D01*
G01X1316184Y1656023D01*
G01X1316184Y1676023D01*
G01X1314758Y1686025D01*
G01X1316184Y1696028D01*
G01X1316184Y1716028D01*
G01X1314758Y1726030D01*
G01X1316184Y1736033D01*
G01X1316184Y1756033D01*
G01X1314762Y1766023D01*
G01X1316184Y1776012D01*
G01X1316184Y1786108D01*
G01X1326231Y1793818D01*
G01X1357677Y1825264D01*
G01X1353502Y1816046D01*
G01X1352072Y1806028D01*
G01X1352072Y1406028D01*
G01X1353825Y1394961D01*
G01X1358912Y1384977D01*
G01X1366836Y1377054D01*
G01X1376819Y1371967D01*
G01X1387886Y1370214D01*
G01X1787886Y1370214D01*
G01X1797861Y1371632D01*
G01X1807047Y1375772D01*
G01X1818248Y1366678D01*
G01X1831150Y1360221D01*
G01X1845143Y1356707D01*
G01X1859564Y1356303D01*
G01X1859563Y1356034D01*
G01X1859563Y1336034D01*
G01X1859606Y1334284D01*
G01X1857880Y1334326D01*
G01X1837881Y1334326D01*
G01X1827878Y1332900D01*
G01X1817875Y1334326D01*
G01X1797876Y1334326D01*
G01X1787873Y1332900D01*
G01X1777870Y1334326D01*
G01X1757871Y1334326D01*
G01X1747881Y1332904D01*
G01X1737891Y1334326D01*
G01X1717891Y1334326D01*
G01X1707888Y1332900D01*
G01X1697886Y1334326D01*
G01X1677886Y1334326D01*
G01X1667883Y1332900D01*
G01X1657881Y1334326D01*
G01X1637881Y1334326D01*
G01X1627878Y1332900D01*
G01X1617876Y1334326D01*
G01X1597876Y1334326D01*
G01X1587873Y1332900D01*
G01X1577871Y1334326D01*
G01X1557871Y1334326D01*
G01X1547881Y1332904D01*
G01X1537891Y1334326D01*
G01X1517891Y1334326D01*
G01X1507889Y1332900D01*
G01X1497886Y1334326D01*
G01X1477886Y1334326D01*
G01X1467884Y1332900D01*
G01X1457881Y1334326D01*
G01X1437881Y1334326D01*
G01X1427879Y1332900D01*
G01X1417876Y1334326D01*
G01X1397876Y1334326D01*
G01X1387874Y1332900D01*
G01X1377871Y1334326D01*
G01X1357871Y1334326D01*
G01X1347881Y1332904D01*
G01X1337892Y1334326D01*
G01X1317892Y1334326D01*
G01X1316141Y1334283D01*
G01X1316184Y1336034D01*
G01X1316184Y1356034D01*
G01X1314762Y1366023D01*
G01X1316184Y1376013D01*
G01X1316184Y1396013D01*
G01X1314758Y1406016D01*
G01X1316184Y1416018D01*
G01X1316184Y1436018D01*
G01X1314758Y1446021D01*
G01X1316184Y1456023D01*
G37*
G36*
G01X1279378Y2054940D02*
G01X1279378Y2037128D01*
G01X1279445Y2034564D01*
G01X1279378Y2032000D01*
G01X1279378Y1946769D01*
G01X1280057Y1938676D01*
G01X1282078Y1930810D01*
G01X1282078Y1913519D01*
G01X1282119Y1911794D01*
G01X1280370Y1911836D01*
G01X1213870Y1911836D01*
G01X1212616Y1911814D01*
G01X1212616Y2000800D01*
G01X1211589Y2009316D01*
G01X1208566Y2017344D01*
G01X1222867Y2016587D01*
G01X1236997Y2018919D01*
G01X1250297Y2024229D01*
G01X1262146Y2032271D01*
G01X1271993Y2042670D01*
G01X1279378Y2054940D01*
G37*
G36*
G01X1077155Y2065884D02*
G01X1094545Y2065884D01*
G01X1102458Y2058045D01*
G01X1112397Y2053016D01*
G01X1123400Y2051284D01*
G01X1160854Y2051284D01*
G01X1165729Y2043578D01*
G01X1171614Y2036614D01*
G01X1096802Y2036614D01*
G01X1085162Y2034669D01*
G01X1074786Y2029047D01*
G01X1066800Y2020357D01*
G01X1060221Y2027892D01*
G01X1051814Y2033314D01*
G01X1051814Y2051456D01*
G01X1061511Y2053809D01*
G01X1070182Y2058746D01*
G01X1077155Y2065884D01*
G37*
G36*
G01X143495Y2236665D02*
G01X92964Y2186134D01*
G01X92964Y2692400D01*
G01X94716Y2710190D01*
G01X99905Y2727295D01*
G01X108332Y2743060D01*
G01X119672Y2756878D01*
G01X133490Y2768218D01*
G01X149255Y2776645D01*
G01X166360Y2781834D01*
G01X184150Y2783586D01*
G01X2188696Y2783586D01*
G01X2180009Y2778825D01*
G01X2172958Y2771867D01*
G01X2168083Y2763243D01*
G01X2165756Y2753614D01*
G01X1879600Y2753614D01*
G01X1867044Y2751961D01*
G01X1855343Y2747114D01*
G01X1845295Y2739405D01*
G01X1580105Y2474214D01*
G01X959610Y2474214D01*
G01X947239Y2483312D01*
G01X933106Y2489321D01*
G01X917971Y2491918D01*
G01X902644Y2490964D01*
G01X887947Y2486510D01*
G01X874669Y2478794D01*
G01X863522Y2468232D01*
G01X855103Y2455389D01*
G01X849864Y2440953D01*
G01X848086Y2425700D01*
G01X849864Y2410447D01*
G01X855103Y2396011D01*
G01X863522Y2383168D01*
G01X874669Y2372606D01*
G01X887947Y2364890D01*
G01X902644Y2360436D01*
G01X917971Y2359482D01*
G01X933106Y2362079D01*
G01X947239Y2368088D01*
G01X959610Y2377186D01*
G01X1258321Y2377186D01*
G01X1254124Y2367947D01*
G01X1252686Y2357902D01*
G01X1252686Y2277902D01*
G01X1254631Y2266262D01*
G01X1260253Y2255886D01*
G01X1268943Y2247900D01*
G01X1260253Y2239914D01*
G01X1254631Y2229538D01*
G01X1252686Y2217898D01*
G01X1252686Y2140038D01*
G01X1249214Y2141933D01*
G01X1249214Y2167098D01*
G01X1247269Y2178738D01*
G01X1241647Y2189114D01*
G01X1232957Y2197100D01*
G01X1241647Y2205086D01*
G01X1247269Y2215462D01*
G01X1249214Y2227102D01*
G01X1249214Y2307102D01*
G01X1247461Y2318169D01*
G01X1242374Y2328153D01*
G01X1234451Y2336076D01*
G01X1224467Y2341163D01*
G01X1213400Y2342916D01*
G01X1123400Y2342916D01*
G01X1112333Y2341163D01*
G01X1102349Y2336076D01*
G01X1094426Y2328153D01*
G01X1089339Y2318169D01*
G01X1087586Y2307102D01*
G01X1087586Y2227102D01*
G01X1089531Y2215462D01*
G01X1095153Y2205086D01*
G01X1103843Y2197100D01*
G01X1098798Y2193124D01*
G01X1094545Y2188312D01*
G01X1077155Y2188312D01*
G01X1072902Y2193124D01*
G01X1067857Y2197100D01*
G01X1076547Y2205086D01*
G01X1082169Y2215462D01*
G01X1084114Y2227102D01*
G01X1084114Y2307102D01*
G01X1082361Y2318169D01*
G01X1077274Y2328153D01*
G01X1069351Y2336076D01*
G01X1059367Y2341163D01*
G01X1048300Y2342916D01*
G01X958300Y2342916D01*
G01X947233Y2341163D01*
G01X937249Y2336076D01*
G01X929326Y2328153D01*
G01X924239Y2318169D01*
G01X922486Y2307102D01*
G01X922486Y2294481D01*
G01X824182Y2392785D01*
G01X814906Y2400398D01*
G01X804323Y2406054D01*
G01X792840Y2409538D01*
G01X780898Y2410714D01*
G01X619017Y2410714D01*
G01X606521Y2427270D01*
G01X591272Y2441331D01*
G01X573759Y2452446D01*
G01X554545Y2460259D01*
G01X534244Y2464519D01*
G01X513510Y2465090D01*
G01X493006Y2461953D01*
G01X473391Y2455209D01*
G01X455293Y2445074D01*
G01X439294Y2431874D01*
G01X425906Y2416031D01*
G01X415558Y2398054D01*
G01X408583Y2378520D01*
G01X405205Y2358054D01*
G01X405532Y2337314D01*
G01X409552Y2316966D01*
G01X417139Y2297660D01*
G01X428047Y2280018D01*
G01X441927Y2264604D01*
G01X458334Y2251914D01*
G01X329071Y2251914D01*
G01X345905Y2265003D01*
G01X360054Y2280956D01*
G01X371039Y2299233D01*
G01X378486Y2319214D01*
G01X382144Y2340222D01*
G01X381888Y2361544D01*
G01X377728Y2382458D01*
G01X369804Y2402255D01*
G01X358384Y2420263D01*
G01X343856Y2435872D01*
G01X326713Y2448553D01*
G01X307535Y2457877D01*
G01X286974Y2463526D01*
G01X265724Y2465310D01*
G01X244509Y2463167D01*
G01X224045Y2457172D01*
G01X205028Y2447526D01*
G01X188101Y2434557D01*
G01X173839Y2418704D01*
G01X162725Y2400506D01*
G01X155136Y2380578D01*
G01X151330Y2359597D01*
G01X151434Y2338273D01*
G01X155446Y2317330D01*
G01X163230Y2297478D01*
G01X174522Y2279389D01*
G01X188938Y2263677D01*
G01X205991Y2250875D01*
G01X177800Y2250875D01*
G01X165244Y2249221D01*
G01X153543Y2244375D01*
G01X143495Y2236665D01*
G37*
G36*
G01X92964Y247650D02*
G01X92964Y317500D01*
G01X150881Y317500D01*
G01X152853Y296219D01*
G01X158702Y275663D01*
G01X168228Y256532D01*
G01X181107Y239477D01*
G01X196901Y225079D01*
G01X215072Y213828D01*
G01X235001Y206107D01*
G01X256009Y202180D01*
G01X277381Y202180D01*
G01X298389Y206107D01*
G01X318318Y213828D01*
G01X336488Y225079D01*
G01X352282Y239477D01*
G01X365162Y256532D01*
G01X374688Y275663D01*
G01X380537Y296219D01*
G01X382509Y317500D01*
G01X382509Y317500D01*
G01X380537Y338781D01*
G01X374688Y359337D01*
G01X365162Y378468D01*
G01X352282Y395523D01*
G01X336488Y409921D01*
G01X318318Y421172D01*
G01X298389Y428893D01*
G01X277381Y432820D01*
G01X256009Y432820D01*
G01X235001Y428893D01*
G01X215072Y421172D01*
G01X196901Y409921D01*
G01X181107Y395523D01*
G01X168228Y378468D01*
G01X158702Y359337D01*
G01X152853Y338781D01*
G01X150881Y317500D01*
G01X92964Y317500D01*
G01X92964Y567491D01*
G01X100824Y555217D01*
G01X111175Y544957D01*
G01X123518Y537206D01*
G01X137255Y532338D01*
G01X151725Y530589D01*
G01X160056Y526348D01*
G01X169739Y508173D01*
G01X182488Y492000D01*
G01X197899Y478341D01*
G01X215487Y467627D01*
G01X234693Y460198D01*
G01X254912Y456288D01*
G01X275504Y456021D01*
G01X295817Y459405D01*
G01X315210Y466333D01*
G01X333070Y476586D01*
G01X348831Y489841D01*
G01X361995Y505677D01*
G01X372147Y523594D01*
G01X378964Y543027D01*
G01X384795Y537195D01*
G01X393805Y530103D01*
G01X404227Y525322D01*
G01X415480Y523121D01*
G01X425363Y505753D01*
G01X438084Y490342D01*
G01X453266Y477347D01*
G01X470455Y467155D01*
G01X489141Y460070D01*
G01X508766Y456303D01*
G01X528747Y455966D01*
G01X548488Y459068D01*
G01X567402Y465518D01*
G01X584926Y475123D01*
G01X600537Y487597D01*
G01X613772Y502570D01*
G01X624236Y519595D01*
G01X631618Y538165D01*
G01X635697Y557728D01*
G01X636353Y577701D01*
G01X633565Y597489D01*
G01X627418Y616503D01*
G01X618093Y634178D01*
G01X605868Y649986D01*
G01X838200Y649986D01*
G01X850756Y651639D01*
G01X862457Y656486D01*
G01X872505Y664195D01*
G01X878636Y670327D01*
G01X892750Y672359D01*
G01X906102Y677360D01*
G01X918077Y685100D01*
G01X928121Y695222D01*
G01X935768Y707256D01*
G01X940667Y720647D01*
G01X942589Y734776D01*
G01X941447Y748989D01*
G01X937292Y762629D01*
G01X930318Y775066D01*
G01X920846Y785724D01*
G01X909315Y794111D01*
G01X915050Y808696D01*
G01X917202Y824219D01*
G01X915651Y839813D01*
G01X910484Y854608D01*
G01X901990Y867778D01*
G01X890642Y878586D01*
G01X1046990Y878586D01*
G01X1058234Y870145D01*
G01X1071004Y864265D01*
G01X1084727Y861208D01*
G01X1098786Y861114D01*
G01X1112549Y863985D01*
G01X1125397Y869693D01*
G01X1136753Y877982D01*
G01X1146107Y888478D01*
G01X1153037Y900711D01*
G01X1157233Y914129D01*
G01X1158506Y928131D01*
G01X1156799Y942086D01*
G01X1224790Y942086D01*
G01X1236270Y933505D01*
G01X1249326Y927591D01*
G01X1263348Y924620D01*
G01X717442Y378714D01*
G01X619009Y378714D01*
G01X606101Y395722D01*
G01X590290Y410071D01*
G01X572114Y421273D01*
G01X552190Y428949D01*
G01X531196Y432837D01*
G01X509844Y432804D01*
G01X488862Y428853D01*
G01X468961Y421117D01*
G01X450819Y409859D01*
G01X435052Y395462D01*
G01X422195Y378415D01*
G01X412687Y359298D01*
G01X406849Y338760D01*
G01X404881Y317500D01*
G01X406849Y296240D01*
G01X412687Y275702D01*
G01X422195Y256585D01*
G01X435052Y239538D01*
G01X450819Y225141D01*
G01X468961Y213883D01*
G01X488862Y206147D01*
G01X509844Y202196D01*
G01X531196Y202163D01*
G01X552190Y206051D01*
G01X572114Y213727D01*
G01X590290Y224929D01*
G01X606101Y239278D01*
G01X619009Y256286D01*
G01X742798Y256286D01*
G01X754740Y257462D01*
G01X766223Y260946D01*
G01X776806Y266602D01*
G01X786082Y274215D01*
G01X1328886Y817019D01*
G01X1328886Y804398D01*
G01X1330639Y793331D01*
G01X1335726Y783347D01*
G01X1343649Y775424D01*
G01X1353633Y770337D01*
G01X1364700Y768584D01*
G01X1454700Y768584D01*
G01X1465767Y770337D01*
G01X1475751Y775424D01*
G01X1483674Y783347D01*
G01X1488761Y793331D01*
G01X1490514Y804398D01*
G01X1490514Y884398D01*
G01X1488569Y896038D01*
G01X1482947Y906414D01*
G01X1474257Y914400D01*
G01X1479302Y918376D01*
G01X1483555Y923188D01*
G01X1513645Y923188D01*
G01X1517898Y918376D01*
G01X1522943Y914400D01*
G01X1514253Y906414D01*
G01X1508631Y896038D01*
G01X1506686Y884398D01*
G01X1506686Y804398D01*
G01X1508439Y793331D01*
G01X1513526Y783347D01*
G01X1521449Y775424D01*
G01X1531433Y770337D01*
G01X1542500Y768584D01*
G01X1632500Y768584D01*
G01X1643567Y770337D01*
G01X1653551Y775424D01*
G01X1661474Y783347D01*
G01X1666561Y793331D01*
G01X1668314Y804398D01*
G01X1668314Y884398D01*
G01X1666369Y896038D01*
G01X1660747Y906414D01*
G01X1652057Y914400D01*
G01X1657102Y918376D01*
G01X1661355Y923188D01*
G01X1683066Y923188D01*
G01X1676958Y915636D01*
G01X1673103Y906721D01*
G01X1671786Y897098D01*
G01X1671786Y817098D01*
G01X1673539Y806031D01*
G01X1678626Y796047D01*
G01X1686549Y788124D01*
G01X1696533Y783037D01*
G01X1707600Y781284D01*
G01X1757463Y781284D01*
G01X1748850Y775341D01*
G01X1741279Y768116D01*
G01X1694900Y768116D01*
G01X1683833Y766363D01*
G01X1673849Y761276D01*
G01X1665926Y753353D01*
G01X1660839Y743369D01*
G01X1659086Y732302D01*
G01X1659086Y652302D01*
G01X1661031Y640662D01*
G01X1666653Y630286D01*
G01X1675343Y622300D01*
G01X1666653Y614314D01*
G01X1661031Y603938D01*
G01X1659086Y592298D01*
G01X1659086Y512298D01*
G01X1660839Y501231D01*
G01X1665926Y491247D01*
G01X1673849Y483324D01*
G01X1683833Y478237D01*
G01X1694900Y476484D01*
G01X1784900Y476484D01*
G01X1795967Y478237D01*
G01X1805951Y483324D01*
G01X1813874Y491247D01*
G01X1818961Y501231D01*
G01X1820714Y512298D01*
G01X1820714Y592298D01*
G01X1818769Y603938D01*
G01X1813147Y614314D01*
G01X1804457Y622300D01*
G01X1813147Y630286D01*
G01X1818769Y640662D01*
G01X1820714Y652302D01*
G01X1820714Y664767D01*
G01X1833838Y673534D01*
G01X1844518Y685155D01*
G01X1852318Y678032D01*
G01X1861856Y673494D01*
G01X1872304Y671937D01*
G01X1925504Y671937D01*
G01X1936481Y673660D01*
G01X1946402Y678666D01*
G01X1956323Y673660D01*
G01X1967300Y671937D01*
G01X2020500Y671937D01*
G01X2031477Y673660D01*
G01X2041398Y678666D01*
G01X2051319Y673660D01*
G01X2062296Y671937D01*
G01X2115496Y671937D01*
G01X2126563Y673690D01*
G01X2136547Y678777D01*
G01X2144470Y686700D01*
G01X2149557Y696684D01*
G01X2151310Y707751D01*
G01X2151310Y753806D01*
G01X2185517Y788013D01*
G01X2192203Y775295D01*
G01X2201437Y764286D01*
G01X2212796Y755487D01*
G01X2225765Y749300D01*
G01X2212211Y742748D01*
G01X2200453Y733349D01*
G01X2191078Y721571D01*
G01X2184554Y708004D01*
G01X2181209Y693327D01*
G01X2181209Y678273D01*
G01X2184554Y663596D01*
G01X2191078Y650029D01*
G01X2200453Y638251D01*
G01X2212211Y628852D01*
G01X2225765Y622300D01*
G01X2211671Y615404D01*
G01X2199557Y605434D01*
G01X2190081Y592929D01*
G01X2183756Y578571D01*
G01X2180927Y563139D01*
G01X2181747Y547470D01*
G01X2186172Y532418D01*
G01X2193962Y518798D01*
G01X2204693Y507352D01*
G01X2217782Y498701D01*
G01X2232518Y493315D01*
G01X2248101Y491486D01*
G01X2371601Y491486D01*
G01X2387169Y493311D01*
G01X2401894Y498688D01*
G01X2414976Y507324D01*
G01X2425705Y518752D01*
G01X2433501Y532352D01*
G01X2437940Y547386D01*
G01X2438781Y563039D01*
G01X2435979Y578462D01*
G01X2441563Y570250D01*
G01X2449187Y563887D01*
G01X2458266Y559863D01*
G01X2468100Y558486D01*
G01X2688100Y558486D01*
G01X2697934Y559863D01*
G01X2707013Y563887D01*
G01X2714637Y570250D01*
G01X2720221Y578462D01*
G01X2717419Y563039D01*
G01X2718260Y547386D01*
G01X2722699Y532352D01*
G01X2730495Y518752D01*
G01X2741224Y507324D01*
G01X2754306Y498688D01*
G01X2769031Y493311D01*
G01X2784599Y491486D01*
G01X2908099Y491486D01*
G01X2921437Y492821D01*
G01X2934245Y496772D01*
G01X2946017Y503182D01*
G01X2956286Y511798D01*
G01X2956286Y504913D01*
G01X2957600Y495299D01*
G01X2961447Y486391D01*
G01X2967544Y478842D01*
G01X2975444Y473207D01*
G01X2984566Y469900D01*
G01X2975444Y466593D01*
G01X2967544Y460958D01*
G01X2961447Y453409D01*
G01X2957600Y444501D01*
G01X2956286Y434887D01*
G01X2956286Y354240D01*
G01X2958039Y343173D01*
G01X2963126Y333189D01*
G01X2971049Y325266D01*
G01X2981033Y320179D01*
G01X2992100Y318426D01*
G01X3078500Y318426D01*
G01X3089567Y320179D01*
G01X3099551Y325266D01*
G01X3107474Y333189D01*
G01X3112561Y343173D01*
G01X3114314Y354240D01*
G01X3114314Y434887D01*
G01X3113000Y444501D01*
G01X3109153Y453409D01*
G01X3103056Y460958D01*
G01X3095156Y466593D01*
G01X3086034Y469900D01*
G01X3095156Y473207D01*
G01X3103056Y478842D01*
G01X3109153Y486391D01*
G01X3113000Y495299D01*
G01X3114314Y504913D01*
G01X3114314Y522479D01*
G01X3229595Y407198D01*
G01X3239643Y399488D01*
G01X3251344Y394642D01*
G01X3263900Y392989D01*
G01X3264722Y392989D01*
G01X3274958Y387563D01*
G01X3286392Y385689D01*
G01X3414697Y385689D01*
G01X3413095Y370468D01*
G01X3415193Y355308D01*
G01X3420866Y341093D01*
G01X3429785Y328656D01*
G01X3441428Y318722D01*
G01X3455114Y311872D01*
G01X3470044Y308506D01*
G01X3485346Y308821D01*
G01X3500125Y312798D01*
G01X3513517Y320206D01*
G01X3524741Y330610D01*
G01X3533141Y343404D01*
G01X3538225Y357840D01*
G01X3539697Y373074D01*
G01X3537470Y388216D01*
G01X3531675Y402381D01*
G01X3535796Y411550D01*
G01X3537207Y421503D01*
G01X3537207Y461503D01*
G01X3536639Y467853D01*
G01X3534955Y474002D01*
G01X3536639Y480151D01*
G01X3537207Y486501D01*
G01X3537207Y526501D01*
G01X3536639Y532852D01*
G01X3534955Y539001D01*
G01X3536639Y545150D01*
G01X3537207Y551500D01*
G01X3537207Y591500D01*
G01X3536639Y597850D01*
G01X3534955Y603999D01*
G01X3536639Y610148D01*
G01X3537207Y616499D01*
G01X3537207Y656499D01*
G01X3536639Y662849D01*
G01X3534955Y668998D01*
G01X3536639Y675147D01*
G01X3537207Y681497D01*
G01X3537207Y721497D01*
G01X3535796Y731450D01*
G01X3531675Y740619D01*
G01X3537470Y754784D01*
G01X3539697Y769926D01*
G01X3538225Y785160D01*
G01X3533141Y799596D01*
G01X3524741Y812390D01*
G01X3513517Y822794D01*
G01X3500125Y830202D01*
G01X3485346Y834179D01*
G01X3470044Y834494D01*
G01X3455114Y831128D01*
G01X3441428Y824278D01*
G01X3429785Y814344D01*
G01X3420866Y801907D01*
G01X3415193Y787692D01*
G01X3413095Y772532D01*
G01X3414697Y757311D01*
G01X3301862Y757311D01*
G01X3310638Y770694D01*
G01X3315952Y785790D01*
G01X3317494Y801718D01*
G01X3315176Y817553D01*
G01X3309132Y832371D01*
G01X3299714Y845310D01*
G01X3299714Y850821D01*
G01X3304400Y850685D01*
G01X3384400Y850685D01*
G01X3401202Y852451D01*
G01X3417270Y857672D01*
G01X3431901Y866119D01*
G01X3444457Y877424D01*
G01X3454387Y891092D01*
G01X3461259Y906526D01*
G01X3464771Y923052D01*
G01X3464771Y939947D01*
G01X3571029Y939947D01*
G01X3571029Y923052D01*
G01X3574541Y906526D01*
G01X3581413Y891092D01*
G01X3591343Y877424D01*
G01X3603899Y866119D01*
G01X3618530Y857672D01*
G01X3634598Y852451D01*
G01X3651400Y850685D01*
G01X3651400Y850685D01*
G01X3731400Y850685D01*
G01X3748202Y852451D01*
G01X3764270Y857672D01*
G01X3778901Y866119D01*
G01X3791456Y877424D01*
G01X3801387Y891092D01*
G01X3808258Y906526D01*
G01X3811771Y923052D01*
G01X3811771Y939947D01*
G01X3808258Y956472D01*
G01X3801387Y971906D01*
G01X3791456Y985574D01*
G01X3778901Y996879D01*
G01X3764270Y1005326D01*
G01X3748202Y1010547D01*
G01X3731400Y1012313D01*
G01X3651400Y1012313D01*
G01X3634598Y1010547D01*
G01X3618530Y1005326D01*
G01X3603899Y996879D01*
G01X3591343Y985574D01*
G01X3581413Y971906D01*
G01X3574541Y956472D01*
G01X3571029Y939947D01*
G01X3464771Y939947D01*
G01X3461259Y956472D01*
G01X3454387Y971906D01*
G01X3444457Y985574D01*
G01X3431901Y996879D01*
G01X3417270Y1005326D01*
G01X3401202Y1010547D01*
G01X3384400Y1012313D01*
G01X3304400Y1012313D01*
G01X3287697Y1010568D01*
G01X3271716Y1005409D01*
G01X3257146Y997058D01*
G01X3244616Y985875D01*
G01X3244616Y997500D01*
G01X3242863Y1008567D01*
G01X3237776Y1018551D01*
G01X3229853Y1026474D01*
G01X3219869Y1031561D01*
G01X3208802Y1033314D01*
G01X3128802Y1033314D01*
G01X3127709Y1033297D01*
G01X3193195Y1098784D01*
G01X3245400Y1098784D01*
G01X3256403Y1100516D01*
G01X3266342Y1105545D01*
G01X3274255Y1113384D01*
G01X3282798Y1113384D01*
G01X3294740Y1114560D01*
G01X3306223Y1118043D01*
G01X3316806Y1123700D01*
G01X3326082Y1131313D01*
G01X3383385Y1188615D01*
G01X3390998Y1197891D01*
G01X3396654Y1208474D01*
G01X3400138Y1219958D01*
G01X3401314Y1231900D01*
G01X3401314Y1401549D01*
G01X3408874Y1409424D01*
G01X3413710Y1419211D01*
G01X3415374Y1430000D01*
G01X3415374Y1516400D01*
G01X3413849Y1526742D01*
G01X3409402Y1536202D01*
G01X3402413Y1543976D01*
G01X3393476Y1549400D01*
G01X3402413Y1554824D01*
G01X3409402Y1562598D01*
G01X3413849Y1572058D01*
G01X3415374Y1582400D01*
G01X3415374Y1668800D01*
G01X3413849Y1679142D01*
G01X3409402Y1688602D01*
G01X3402413Y1696376D01*
G01X3393476Y1701800D01*
G01X3402413Y1707224D01*
G01X3409402Y1714998D01*
G01X3413849Y1724458D01*
G01X3415374Y1734800D01*
G01X3415374Y1821200D01*
G01X3413621Y1832267D01*
G01X3408534Y1842251D01*
G01X3400611Y1850174D01*
G01X3390627Y1855261D01*
G01X3379560Y1857014D01*
G01X3298913Y1857014D01*
G01X3287637Y1855193D01*
G01X3277509Y1849915D01*
G01X3265622Y1849370D01*
G01X3254025Y1846710D01*
G01X3246642Y1852304D01*
G01X3238072Y1855817D01*
G01X3228887Y1857014D01*
G01X3148240Y1857014D01*
G01X3137214Y1855275D01*
G01X3137214Y1969102D01*
G01X3135474Y1983900D01*
G01X3130350Y1997892D01*
G01X3122121Y2010314D01*
G01X3111236Y2020489D01*
G01X3098288Y2027862D01*
G01X3083983Y2032032D01*
G01X3069101Y2032771D01*
G01X3054453Y2030038D01*
G01X3040839Y2023983D01*
G01X3028999Y2014936D01*
G01X3019581Y2003390D01*
G01X3013097Y1989975D01*
G01X3009900Y1975422D01*
G01X3006465Y1990651D01*
G01X2999435Y2004591D01*
G01X2989231Y2016407D01*
G01X2976462Y2025391D01*
G01X2961895Y2031006D01*
G01X2946400Y2032916D01*
G01X2930905Y2031006D01*
G01X2916338Y2025391D01*
G01X2903569Y2016407D01*
G01X2893365Y2004591D01*
G01X2886335Y1990651D01*
G01X2882900Y1975422D01*
G01X2879465Y1990651D01*
G01X2872435Y2004591D01*
G01X2862231Y2016407D01*
G01X2849462Y2025391D01*
G01X2834895Y2031006D01*
G01X2819400Y2032916D01*
G01X2803905Y2031006D01*
G01X2789338Y2025391D01*
G01X2776569Y2016407D01*
G01X2766365Y2004591D01*
G01X2759335Y1990651D01*
G01X2755900Y1975422D01*
G01X2752465Y1990651D01*
G01X2745435Y2004591D01*
G01X2735231Y2016407D01*
G01X2722462Y2025391D01*
G01X2707895Y2031006D01*
G01X2692400Y2032916D01*
G01X2676905Y2031006D01*
G01X2662338Y2025391D01*
G01X2649569Y2016407D01*
G01X2639365Y2004591D01*
G01X2632335Y1990651D01*
G01X2628900Y1975422D01*
G01X2625465Y1990651D01*
G01X2618435Y2004591D01*
G01X2608231Y2016407D01*
G01X2595462Y2025391D01*
G01X2580895Y2031006D01*
G01X2565400Y2032916D01*
G01X2549905Y2031006D01*
G01X2535338Y2025391D01*
G01X2522569Y2016407D01*
G01X2512365Y2004591D01*
G01X2505335Y1990651D01*
G01X2501900Y1975422D01*
G01X2498465Y1990651D01*
G01X2491435Y2004591D01*
G01X2481231Y2016407D01*
G01X2468462Y2025391D01*
G01X2453895Y2031006D01*
G01X2438400Y2032916D01*
G01X2422905Y2031006D01*
G01X2408338Y2025391D01*
G01X2395569Y2016407D01*
G01X2385365Y2004591D01*
G01X2378335Y1990651D01*
G01X2374900Y1975422D01*
G01X2371465Y1990651D01*
G01X2364435Y2004591D01*
G01X2354231Y2016407D01*
G01X2341462Y2025391D01*
G01X2326895Y2031006D01*
G01X2311400Y2032916D01*
G01X2295905Y2031006D01*
G01X2281338Y2025391D01*
G01X2268569Y2016407D01*
G01X2258365Y2004591D01*
G01X2251335Y1990651D01*
G01X2247900Y1975422D01*
G01X2244703Y1989975D01*
G01X2238219Y2003390D01*
G01X2228801Y2014936D01*
G01X2216961Y2023983D01*
G01X2203347Y2030038D01*
G01X2188699Y2032771D01*
G01X2173817Y2032032D01*
G01X2159512Y2027862D01*
G01X2146564Y2020489D01*
G01X2135679Y2010314D01*
G01X2127450Y1997892D01*
G01X2122326Y1983900D01*
G01X2120586Y1969102D01*
G01X2120586Y1850601D01*
G01X2121763Y1838405D01*
G01X2125248Y1826659D01*
G01X2130914Y1815795D01*
G01X2138552Y1806214D01*
G01X2106840Y1806214D01*
G01X2095773Y1804461D01*
G01X2085789Y1799374D01*
G01X2077866Y1791451D01*
G01X2072779Y1781467D01*
G01X2071026Y1770400D01*
G01X2071026Y1768115D01*
G01X2057419Y1775749D01*
G01X2042405Y1779993D01*
G01X2026815Y1780611D01*
G01X2011513Y1777570D01*
G01X1997344Y1771038D01*
G01X1997691Y1776012D01*
G01X1997691Y1796012D01*
G01X1996266Y1806015D01*
G01X1997691Y1816017D01*
G01X1997691Y1836017D01*
G01X1996266Y1846020D01*
G01X1997691Y1856022D01*
G01X1997691Y1876022D01*
G01X1996615Y1884734D01*
G01X2007945Y1875203D01*
G01X2021108Y1868425D01*
G01X2035446Y1864735D01*
G01X2050245Y1864318D01*
G01X2064768Y1867195D01*
G01X2078290Y1873223D01*
G01X2090139Y1882100D01*
G01X2099722Y1893385D01*
G01X2106563Y1906515D01*
G01X2110321Y1920835D01*
G01X2110807Y1935633D01*
G01X2107999Y1950169D01*
G01X2102035Y1963720D01*
G01X2093214Y1975610D01*
G01X2093214Y2105964D01*
G01X2101283Y2111573D01*
G01X2107523Y2119163D01*
G01X2111466Y2128164D01*
G01X2112814Y2137898D01*
G01X2112814Y2190102D01*
G01X2142505Y2219793D01*
G01X2150214Y2229841D01*
G01X2155061Y2241541D01*
G01X2156714Y2254098D01*
G01X2156714Y2367603D01*
G01X2171177Y2362669D01*
G01X2186399Y2361316D01*
G01X2201505Y2363620D01*
G01X2215631Y2369449D01*
G01X2227966Y2378470D01*
G01X2237803Y2390165D01*
G01X2244577Y2403863D01*
G01X2247900Y2418778D01*
G01X2251335Y2403549D01*
G01X2258365Y2389609D01*
G01X2268569Y2377793D01*
G01X2281338Y2368809D01*
G01X2295905Y2363194D01*
G01X2311400Y2361284D01*
G01X2326895Y2363194D01*
G01X2341462Y2368809D01*
G01X2354231Y2377793D01*
G01X2364435Y2389609D01*
G01X2371465Y2403549D01*
G01X2374900Y2418778D01*
G01X2378335Y2403549D01*
G01X2385365Y2389609D01*
G01X2395569Y2377793D01*
G01X2408338Y2368809D01*
G01X2422905Y2363194D01*
G01X2438400Y2361284D01*
G01X2453895Y2363194D01*
G01X2468462Y2368809D01*
G01X2481231Y2377793D01*
G01X2491435Y2389609D01*
G01X2498465Y2403549D01*
G01X2501900Y2418778D01*
G01X2505335Y2403549D01*
G01X2512365Y2389609D01*
G01X2522569Y2377793D01*
G01X2535338Y2368809D01*
G01X2549905Y2363194D01*
G01X2565400Y2361284D01*
G01X2580895Y2363194D01*
G01X2595462Y2368809D01*
G01X2608231Y2377793D01*
G01X2618435Y2389609D01*
G01X2625465Y2403549D01*
G01X2628900Y2418778D01*
G01X2632335Y2403549D01*
G01X2639365Y2389609D01*
G01X2649569Y2377793D01*
G01X2662338Y2368809D01*
G01X2676905Y2363194D01*
G01X2692400Y2361284D01*
G01X2707895Y2363194D01*
G01X2722462Y2368809D01*
G01X2735231Y2377793D01*
G01X2745435Y2389609D01*
G01X2752465Y2403549D01*
G01X2755900Y2418778D01*
G01X2759335Y2403549D01*
G01X2766365Y2389609D01*
G01X2776569Y2377793D01*
G01X2789338Y2368809D01*
G01X2803905Y2363194D01*
G01X2819400Y2361284D01*
G01X2834895Y2363194D01*
G01X2849462Y2368809D01*
G01X2862231Y2377793D01*
G01X2872435Y2389609D01*
G01X2879465Y2403549D01*
G01X2882900Y2418778D01*
G01X2886335Y2403549D01*
G01X2893365Y2389609D01*
G01X2903569Y2377793D01*
G01X2916338Y2368809D01*
G01X2930905Y2363194D01*
G01X2946400Y2361284D01*
G01X2961895Y2363194D01*
G01X2976462Y2368809D01*
G01X2989231Y2377793D01*
G01X2999435Y2389609D01*
G01X3006465Y2403549D01*
G01X3009900Y2418778D01*
G01X3013097Y2404225D01*
G01X3019581Y2390810D01*
G01X3028999Y2379264D01*
G01X3040839Y2370217D01*
G01X3054453Y2364162D01*
G01X3069101Y2361429D01*
G01X3083983Y2362168D01*
G01X3098288Y2366338D01*
G01X3111236Y2373711D01*
G01X3122121Y2383886D01*
G01X3130350Y2396308D01*
G01X3135474Y2410300D01*
G01X3137214Y2425098D01*
G01X3137214Y2543599D01*
G01X3135474Y2558398D01*
G01X3130350Y2572389D01*
G01X3122121Y2584811D01*
G01X3111236Y2594986D01*
G01X3098288Y2602359D01*
G01X3083983Y2606529D01*
G01X3069101Y2607268D01*
G01X3054453Y2604535D01*
G01X3040839Y2598480D01*
G01X3028999Y2589433D01*
G01X3019581Y2577888D01*
G01X3013097Y2564472D01*
G01X3009900Y2549919D01*
G01X3006465Y2565148D01*
G01X2999435Y2579088D01*
G01X2989231Y2590904D01*
G01X2976462Y2599888D01*
G01X2961895Y2605503D01*
G01X2946400Y2607413D01*
G01X2930905Y2605503D01*
G01X2916338Y2599888D01*
G01X2903569Y2590904D01*
G01X2893365Y2579088D01*
G01X2886335Y2565148D01*
G01X2882900Y2549919D01*
G01X2879465Y2565148D01*
G01X2872435Y2579088D01*
G01X2862231Y2590904D01*
G01X2849462Y2599888D01*
G01X2834895Y2605503D01*
G01X2819400Y2607413D01*
G01X2803905Y2605503D01*
G01X2789338Y2599888D01*
G01X2776569Y2590904D01*
G01X2766365Y2579088D01*
G01X2759335Y2565148D01*
G01X2755900Y2549919D01*
G01X2752461Y2565159D01*
G01X2745422Y2579107D01*
G01X2735205Y2590927D01*
G01X2722422Y2599910D01*
G01X2707839Y2605517D01*
G01X2692331Y2607413D01*
G01X2676826Y2605483D01*
G01X2662256Y2599844D01*
G01X2686698Y2624286D01*
G01X2738902Y2624286D01*
G01X2749969Y2626039D01*
G01X2759953Y2631126D01*
G01X2767876Y2639049D01*
G01X2772963Y2649033D01*
G01X2774716Y2660100D01*
G01X2774716Y2750100D01*
G01X2773095Y2760754D01*
G01X2768377Y2770444D01*
G01X2760990Y2778291D01*
G01X2751604Y2783586D01*
G01X3860800Y2783586D01*
G01X3878590Y2781834D01*
G01X3895695Y2776645D01*
G01X3911460Y2768218D01*
G01X3925278Y2756878D01*
G01X3936618Y2743060D01*
G01X3945045Y2727295D01*
G01X3950234Y2710190D01*
G01X3951986Y2692400D01*
G01X3951986Y247650D01*
G01X3950234Y229860D01*
G01X3945045Y212755D01*
G01X3936618Y196990D01*
G01X3925278Y183172D01*
G01X3911460Y171832D01*
G01X3895695Y163405D01*
G01X3878590Y158216D01*
G01X3860800Y156464D01*
G01X3790576Y156464D01*
G01X3800787Y170072D01*
G01X3807922Y185516D01*
G01X3811666Y202111D01*
G01X3811853Y219123D01*
G01X3808475Y235796D01*
G01X3801681Y251393D01*
G01X3791772Y265223D01*
G01X3779188Y276671D01*
G01X3764486Y285231D01*
G01X3748318Y290524D01*
G01X3731400Y292315D01*
G01X3651400Y292315D01*
G01X3634482Y290524D01*
G01X3618314Y285231D01*
G01X3603611Y276671D01*
G01X3591027Y265223D01*
G01X3581119Y251393D01*
G01X3574325Y235796D01*
G01X3570946Y219123D01*
G01X3571133Y202111D01*
G01X3574878Y185516D01*
G01X3582013Y170072D01*
G01X3592223Y156464D01*
G01X3443577Y156464D01*
G01X3453787Y170072D01*
G01X3460922Y185516D01*
G01X3464667Y202111D01*
G01X3464854Y219123D01*
G01X3461475Y235796D01*
G01X3454681Y251393D01*
G01X3444773Y265223D01*
G01X3432189Y276671D01*
G01X3417486Y285231D01*
G01X3401318Y290524D01*
G01X3384400Y292315D01*
G01X3304400Y292315D01*
G01X3287482Y290524D01*
G01X3271314Y285231D01*
G01X3256612Y276671D01*
G01X3244028Y265223D01*
G01X3234119Y251393D01*
G01X3227325Y235796D01*
G01X3223947Y219123D01*
G01X3224134Y202111D01*
G01X3227878Y185516D01*
G01X3235013Y170072D01*
G01X3245224Y156464D01*
G01X3158546Y156464D01*
G01X3167669Y167950D01*
G01X3174044Y181160D01*
G01X3177359Y195449D01*
G01X3177452Y210117D01*
G01X3174318Y224446D01*
G01X3168111Y237736D01*
G01X3159134Y249336D01*
G01X3147826Y258679D01*
G01X3134741Y265308D01*
G01X3120519Y268898D01*
G01X3105855Y269273D01*
G01X3091468Y266416D01*
G01X3078061Y260466D01*
G01X3066290Y251714D01*
G01X2225801Y251714D01*
G01X2054780Y422735D01*
G01X2062296Y421937D01*
G01X2115496Y421937D01*
G01X2126563Y423690D01*
G01X2136547Y428777D01*
G01X2144470Y436700D01*
G01X2149557Y446684D01*
G01X2151310Y457751D01*
G01X2151310Y562252D01*
G01X2149557Y573319D01*
G01X2144470Y583303D01*
G01X2136547Y591226D01*
G01X2126563Y596313D01*
G01X2115496Y598066D01*
G01X2062296Y598066D01*
G01X2051229Y596313D01*
G01X2041245Y591226D01*
G01X2033322Y583303D01*
G01X2028235Y573319D01*
G01X2026482Y562252D01*
G01X2026482Y457751D01*
G01X2027279Y450235D01*
G01X1961318Y516197D01*
G01X1961318Y562252D01*
G01X1959565Y573319D01*
G01X1954478Y583303D01*
G01X1946555Y591226D01*
G01X1936571Y596313D01*
G01X1925504Y598066D01*
G01X1872304Y598066D01*
G01X1861237Y596313D01*
G01X1851253Y591226D01*
G01X1843330Y583303D01*
G01X1838243Y573319D01*
G01X1836490Y562252D01*
G01X1836490Y457751D01*
G01X1838243Y446684D01*
G01X1843330Y436700D01*
G01X1851253Y428777D01*
G01X1861237Y423690D01*
G01X1872304Y421937D01*
G01X1918359Y421937D01*
G01X2171401Y168895D01*
G01X2181244Y161305D01*
G01X2192692Y156464D01*
G01X184150Y156464D01*
G01X166360Y158216D01*
G01X149255Y163405D01*
G01X133490Y171832D01*
G01X119672Y183172D01*
G01X108332Y196990D01*
G01X99905Y212755D01*
G01X94716Y229860D01*
G01X92964Y247650D01*
G37*
G54D10*
G01X3228887Y1394186D02*
G03X3263900Y1422466I0J35814D01*
G03X3278886Y1400308I35013J7534D01*
G01X3278886Y1367304D01*
G03X3245400Y1390416I-33486J-12701D01*
G01X3174389Y1390416D01*
G01X3178158Y1394186D01*
G01X3228887Y1394186D01*
G01X3099604Y1142411D02*
G03X3059846Y1231900I-62094J25989D01*
G03X3059846Y1358900I-22336J63500D01*
G03X3084174Y1373886I-22336J63500D01*
G01X3125221Y1373886D01*
G03X3119586Y1354602I30179J-19284D01*
G01X3119586Y1274602D01*
G03X3135843Y1244600I35814J0D01*
G03X3119586Y1214598I19557J-30002D01*
G01X3119586Y1162393D01*
G01X3099604Y1142411D01*
G01X3091363Y1589786D02*
G01X3112426Y1589786D01*
G01X3112426Y1582400D01*
G03X3134324Y1549400I35814J0D01*
G03X3112426Y1516400I13916J-33000D01*
G01X3112426Y1470914D01*
G01X3084174Y1470914D01*
G03X3059846Y1485900I-46664J-48514D01*
G03X3091363Y1589786I-22336J63500D01*
G01X3068798Y871686D02*
G03X3098800Y887943I0J35814D01*
G03X3128802Y871686I30002J19557D01*
G01X3181007Y871686D01*
G01X3202686Y850007D01*
G01X3202686Y845310D01*
G03X3190706Y772934I48514J-45210D01*
G03X3252759Y733804I60494J27166D01*
G03X3250578Y721497I33633J-12307D01*
G01X3250578Y681497D01*
G03X3250685Y678724I35814J0D01*
G01X3228573Y700836D01*
G03X3138762Y760496I-66273J-2336D01*
G03X3097576Y811050I-65362J-11196D01*
G03X3033014Y801898I-24176J-61750D01*
G01X3033014Y838200D01*
G03X3019604Y871686I-48514J0D01*
G01X3068798Y871686D01*
G01X2723914Y594300D02*
G01X2723914Y656673D01*
G03X2762263Y622300I60686J29127D01*
G03X2722827Y585546I22336J-63500D01*
G03X2723914Y594300I-34728J8754D01*
G01X2432286Y656673D02*
G01X2432286Y594300D01*
G03X2433373Y585546I35814J0D01*
G03X2393937Y622300I-61772J-26746D01*
G03X2432286Y656673I-22336J63500D01*
G01X2343519Y1615631D02*
G03X2363998Y1659199I-45682J48069D01*
G03X2373974Y1684000I-25837J24801D01*
G01X2373974Y1770400D01*
G03X2353587Y1802721I-35814J0D01*
G03X2374900Y1844281I-42187J47879D01*
G03X2398078Y1801141I63500J6320D01*
G03X2394184Y1784900I31920J-16241D01*
G01X2394184Y1694900D01*
G03X2429998Y1659086I35814J0D01*
G01X2509998Y1659086D01*
G03X2540000Y1675343I0J35814D01*
G03X2570002Y1659086I30002J19557D01*
G01X2650002Y1659086D01*
G03X2685816Y1694900I0J35814D01*
G01X2685816Y1784900D01*
G01X2685747Y1787135D01*
G03X2691192Y1786799I6653J63466D01*
G01X2862538Y1615452D01*
G03X2853173Y1485900I12970J-66052D01*
G03X2823510Y1379653I22336J-63500D01*
G03X2811245Y1351373I53040J-39803D01*
G03X2813091Y1320602I65305J-11523D01*
G03X2853173Y1231900I62418J-25202D01*
G03X2875509Y1101086I22336J-63500D01*
G01X3037510Y1101086D01*
G03X3063499Y1106306I0J67314D01*
G01X3047107Y1089914D01*
G01X2394995Y1089914D01*
G01X2371005Y1113904D01*
G03X2353827Y1231900I-39514J54496D01*
G03X2353827Y1358900I-22336J63500D01*
G03X2353827Y1485900I-22336J63500D01*
G03X2343519Y1615631I-22336J63500D01*
G01X2247900Y1844281D02*
G03X2265552Y1806214I63500J6320D01*
G01X2257513Y1806214D01*
G03X2227799Y1790394I0J-35814D01*
G03X2219225Y1786994I20101J-63194D01*
G03X2214250Y1794199I-31738J-16594D01*
G03X2247900Y1844281I-29850J56402D01*
G01X1833414Y817098D02*
G01X1833414Y897098D01*
G03X1817157Y927100I-35814J0D01*
G03X1826112Y935430I-19557J30002D01*
G03X1850390Y904492I35687J3010D01*
G01X1850390Y840578D01*
G03X1836490Y812251I21914J-28327D01*
G01X1836490Y771867D01*
G03X1814795Y785682I-45790J-47967D01*
G03X1833414Y817098I-17195J31416D01*
G01X2165756Y2656586D02*
G03X2201398Y2624286I35641J3514D01*
G01X2281398Y2624286D01*
G03X2311400Y2640543I0J35814D01*
G03X2341402Y2624286I30002J19557D01*
G01X2389886Y2624286D01*
G01X2389886Y2585055D01*
G03X2374900Y2549919I48514J-41456D01*
G03X2247900Y2549919I-63500J-6320D01*
G03X2120586Y2543599I-63500J-6320D01*
G01X2120586Y2519380D01*
G01X2119844Y2518653D01*
G01X2073895Y2472705D01*
G03X2059686Y2438400I34305J-34305D01*
G01X2059686Y2393716D01*
G01X1987000Y2393716D01*
G03X1951186Y2357902I0J-35814D01*
G01X1951186Y2277902D01*
G03X1967443Y2247900I35814J0D01*
G03X1952213Y2226412I19557J-30002D01*
G01X1946687Y2226412D01*
G03X1931457Y2247900I-34787J-8514D01*
G03X1947714Y2277902I-19557J30002D01*
G01X1947714Y2357902D01*
G03X1911900Y2393716I-35814J0D01*
G01X1910015Y2393716D01*
G01X1913785Y2397486D01*
G01X1964190Y2397486D01*
G03X2000004Y2433300I0J35814D01*
G01X2000004Y2519700D01*
G03X1964190Y2555514I-35814J0D01*
G01X1884190Y2555514D01*
G03X1854200Y2539277I0J-35814D01*
G03X1824210Y2555514I-29990J-19577D01*
G01X1798623Y2555514D01*
G01X1899695Y2656586D01*
G01X2165756Y2656586D01*
G01X1823700Y1806028D02*
G03X1787886Y1841842I-35814J0D01*
G01X1730351Y1841842D01*
G03X1743747Y1851314I-20908J43777D01*
G01X1760091Y1867658D01*
G03X1767800Y1877705I-34305J34305D01*
G01X1777870Y1877705D01*
G03X1787873Y1879130I0J35814D01*
G03X1797876Y1877705I10003J34389D01*
G01X1817875Y1877705D01*
G03X1827878Y1879130I0J35814D01*
G03X1837881Y1877705I10003J34389D01*
G01X1857880Y1877705D01*
G01X1859605Y1877747D01*
G01X1859563Y1876022D01*
G01X1859563Y1856022D01*
G03X1860988Y1846020I35814J0D01*
G03X1859563Y1836017I34389J-10003D01*
G01X1859563Y1816017D01*
G03X1860988Y1806015I35814J0D01*
G03X1859563Y1796012I34389J-10003D01*
G01X1859563Y1776012D01*
G03X1860985Y1766023I35814J0D01*
G03X1859563Y1756033I34393J-9990D01*
G01X1859563Y1736033D01*
G03X1860988Y1726030I35814J0D01*
G03X1859563Y1716028I34389J-10003D01*
G01X1859563Y1696028D01*
G03X1860988Y1686025I35814J0D01*
G03X1859563Y1676023I34389J-10003D01*
G01X1859563Y1656023D01*
G03X1860988Y1646020I35814J0D01*
G03X1859563Y1636018I34389J-10003D01*
G01X1859563Y1616018D01*
G03X1860988Y1606015I35814J0D01*
G03X1859563Y1596013I34389J-10003D01*
G01X1859563Y1576013D01*
G03X1860985Y1566023I35814J0D01*
G03X1859563Y1556033I34393J-9990D01*
G01X1859563Y1536033D01*
G03X1860988Y1526031I35814J0D01*
G03X1859563Y1516028I34389J-10003D01*
G01X1859563Y1496028D01*
G03X1860379Y1488426I35814J0D01*
G03X1823700Y1481284I-6179J-66026D01*
G01X1823700Y1806028D01*
G01X1676105Y2432996D02*
G03X1706663Y2393716I63795J18104D01*
G01X1636825Y2393716D01*
G01X1676105Y2432996D01*
G01X1579414Y2357902D02*
G03X1573779Y2377186I-35814J0D01*
G01X1588521Y2377186D01*
G03X1582886Y2357902I30179J-19284D01*
G01X1582886Y2294312D01*
G01X1579414Y2294312D01*
G01X1579414Y2357902D01*
G01X1414314Y2357902D02*
G03X1408679Y2377186I-35814J0D01*
G01X1423421Y2377186D01*
G03X1417786Y2357902I30179J-19284D01*
G01X1417786Y2287812D01*
G03X1414314Y2285606I24257J-42014D01*
G01X1414314Y2357902D01*
G01X1371756Y1839343D02*
G01X1373506Y1838828D01*
G03X1368650Y1836237I14380J-32800D01*
G01X1371756Y1839343D01*
G01X1316184Y1456023D02*
G01X1316184Y1476023D01*
G03X1314758Y1486026I-35814J0D01*
G03X1316184Y1496028I-34389J10003D01*
G01X1316184Y1516028D01*
G03X1314758Y1526031I-35814J0D01*
G03X1316184Y1536033I-34389J10003D01*
G01X1316184Y1556033D01*
G03X1314762Y1566023I-35814J0D01*
G03X1316184Y1576013I-34393J9990D01*
G01X1316184Y1596013D01*
G03X1314758Y1606015I-35814J0D01*
G03X1316184Y1616018I-34389J10003D01*
G01X1316184Y1636018D01*
G03X1314758Y1646020I-35814J0D01*
G03X1316184Y1656023I-34389J10003D01*
G01X1316184Y1676023D01*
G03X1314758Y1686025I-35814J0D01*
G03X1316184Y1696028I-34389J10003D01*
G01X1316184Y1716028D01*
G03X1314758Y1726030I-35814J0D01*
G03X1316184Y1736033I-34389J10003D01*
G01X1316184Y1756033D01*
G03X1314762Y1766023I-35814J0D01*
G03X1316184Y1776012I-34393J9990D01*
G01X1316184Y1786108D01*
G03X1326231Y1793818I-24257J42014D01*
G01X1357677Y1825264D01*
G03X1352072Y1806028I30209J-19237D01*
G01X1352072Y1406028D01*
G03X1387886Y1370214I35814J0D01*
G01X1787886Y1370214D01*
G03X1807047Y1375772I0J35814D01*
G03X1859564Y1356303I47153J46628D01*
G01X1859563Y1356034D01*
G01X1859563Y1336034D01*
G01X1859606Y1334284D01*
G01X1857880Y1334326D01*
G01X1837881Y1334326D01*
G03X1827878Y1332900I0J-35814D01*
G03X1817875Y1334326I-10003J-34389D01*
G01X1797876Y1334326D01*
G03X1787873Y1332900I0J-35814D01*
G03X1777870Y1334326I-10003J-34389D01*
G01X1757871Y1334326D01*
G03X1747881Y1332904I0J-35814D01*
G03X1737891Y1334326I-9990J-34393D01*
G01X1717891Y1334326D01*
G03X1707888Y1332900I0J-35814D01*
G03X1697886Y1334326I-10003J-34389D01*
G01X1677886Y1334326D01*
G03X1667883Y1332900I0J-35814D01*
G03X1657881Y1334326I-10003J-34389D01*
G01X1637881Y1334326D01*
G03X1627878Y1332900I0J-35814D01*
G03X1617876Y1334326I-10003J-34389D01*
G01X1597876Y1334326D01*
G03X1587873Y1332900I0J-35814D01*
G03X1577871Y1334326I-10003J-34389D01*
G01X1557871Y1334326D01*
G03X1547881Y1332904I0J-35814D01*
G03X1537891Y1334326I-9990J-34393D01*
G01X1517891Y1334326D01*
G03X1507889Y1332900I0J-35814D01*
G03X1497886Y1334326I-10003J-34389D01*
G01X1477886Y1334326D01*
G03X1467884Y1332900I0J-35814D01*
G03X1457881Y1334326I-10003J-34389D01*
G01X1437881Y1334326D01*
G03X1427879Y1332900I0J-35814D01*
G03X1417876Y1334326I-10003J-34389D01*
G01X1397876Y1334326D01*
G03X1387874Y1332900I0J-35814D01*
G03X1377871Y1334326I-10003J-34389D01*
G01X1357871Y1334326D01*
G03X1347881Y1332904I0J-35814D01*
G03X1337892Y1334326I-9990J-34393D01*
G01X1317892Y1334326D01*
G01X1316141Y1334283D01*
G01X1316184Y1336034D01*
G01X1316184Y1356034D01*
G03X1314762Y1366023I-35814J0D01*
G03X1316184Y1376013I-34393J9990D01*
G01X1316184Y1396013D01*
G03X1314758Y1406016I-35814J0D01*
G03X1316184Y1416018I-34389J10003D01*
G01X1316184Y1436018D01*
G03X1314758Y1446021I-35814J0D01*
G03X1316184Y1456023I-34389J10003D01*
G01X1279378Y2054940D02*
G01X1279378Y2037128D01*
G03X1279445Y2034564I48514J0D01*
G03X1279378Y2032000I48446J-2564D01*
G01X1279378Y1946769D01*
G03X1282078Y1930810I48514J0D01*
G01X1282078Y1913519D01*
G01X1282119Y1911794D01*
G01X1280370Y1911836D01*
G01X1213870Y1911836D01*
G01X1212616Y1911814D01*
G01X1212616Y2000800D01*
G03X1208566Y2017344I-35814J0D01*
G03X1279378Y2054940I10634J65456D01*
G01X1077155Y2065884D02*
G01X1094545Y2065884D01*
G03X1123400Y2051284I28855J21214D01*
G01X1160854Y2051284D01*
G03X1171614Y2036614I58346J31516D01*
G01X1096802Y2036614D01*
G03X1066800Y2020357I0J-35814D01*
G03X1051814Y2033314I-30002J-19557D01*
G01X1051814Y2051456D01*
G03X1077155Y2065884I-3514J35641D01*
G01X143495Y2236665D02*
G01X92964Y2186134D01*
G01X92964Y2692400D01*
G02X184150Y2783586I91186J0D01*
G01X2188696Y2783586D01*
G03X2165756Y2753614I12701J-33486D01*
G01X1879600Y2753614D01*
G03X1845295Y2739405I0J-48514D01*
G01X1580105Y2474214D01*
G01X959610Y2474214D01*
G03X848086Y2425700I-45210J-48514D01*
G03X959610Y2377186I66314J0D01*
G01X1258321Y2377186D01*
G03X1252686Y2357902I30179J-19284D01*
G01X1252686Y2277902D01*
G03X1268943Y2247900I35814J0D01*
G03X1252686Y2217898I19557J-30002D01*
G01X1252686Y2140038D01*
G03X1249214Y2141933I-33486J-57238D01*
G01X1249214Y2167098D01*
G03X1232957Y2197100I-35814J0D01*
G03X1249214Y2227102I-19557J30002D01*
G01X1249214Y2307102D01*
G03X1213400Y2342916I-35814J0D01*
G01X1123400Y2342916D01*
G03X1087586Y2307102I0J-35814D01*
G01X1087586Y2227102D01*
G03X1103843Y2197100I35814J0D01*
G03X1094545Y2188312I19557J-30002D01*
G01X1077155Y2188312D01*
G03X1067857Y2197100I-28855J-21214D01*
G03X1084114Y2227102I-19557J30002D01*
G01X1084114Y2307102D01*
G03X1048300Y2342916I-35814J0D01*
G01X958300Y2342916D01*
G03X922486Y2307102I0J-35814D01*
G01X922486Y2294481D01*
G01X824182Y2392785D01*
G03X780898Y2410714I-43285J-43285D01*
G01X619017Y2410714D01*
G03X439294Y2431874I-98314J-61214D01*
G03X458334Y2251914I81409J-82374D01*
G01X329071Y2251914D01*
G03X265724Y2465310I-62368J97586D01*
G03X205991Y2250875I978J-115810D01*
G01X177800Y2250875D01*
G03X143495Y2236665I0J-48514D01*
G01X92964Y247650D02*
G01X92964Y567491D01*
G03X151725Y530589I59436J29409D01*
G03X160056Y526348I26075J40911D01*
G03X378964Y543027I106649J45152D01*
G01X384795Y537195D01*
G03X415480Y523121I34305J34305D01*
G03X584926Y475123I105225J48379D01*
G03X605868Y649986I-64221J96377D01*
G01X838200Y649986D01*
G03X872505Y664195I0J48514D01*
G01X878636Y670327D01*
G03X940667Y720647I-2336J66273D01*
G03X909315Y794111I-64367J15953D01*
G03X890642Y878586I-58415J31389D01*
G01X1046990Y878586D01*
G03X1125397Y869693I45210J48514D01*
G03X1156799Y942086I-33197J57407D01*
G01X1224790Y942086D01*
G03X1263348Y924620I45210J48514D01*
G01X717442Y378714D01*
G01X619009Y378714D01*
G03X404881Y317500I-98314J-61214D01*
G03X619009Y256286I115814J0D01*
G01X742798Y256286D01*
G03X786082Y274215I0J61214D01*
G01X1328886Y817019D01*
G01X1328886Y804398D01*
G03X1364700Y768584I35814J0D01*
G01X1454700Y768584D01*
G03X1490514Y804398I0J35814D01*
G01X1490514Y884398D01*
G03X1474257Y914400I-35814J0D01*
G03X1483555Y923188I-19557J30002D01*
G01X1513645Y923188D01*
G03X1522943Y914400I28855J21214D01*
G03X1506686Y884398I19557J-30002D01*
G01X1506686Y804398D01*
G03X1542500Y768584I35814J0D01*
G01X1632500Y768584D01*
G03X1668314Y804398I0J35814D01*
G01X1668314Y884398D01*
G03X1652057Y914400I-35814J0D01*
G03X1661355Y923188I-19557J30002D01*
G01X1683066Y923188D01*
G03X1671786Y897098I24534J-26091D01*
G01X1671786Y817098D01*
G03X1707600Y781284I35814J0D01*
G01X1757463Y781284D01*
G03X1741279Y768116I33237J-57384D01*
G01X1694900Y768116D01*
G03X1659086Y732302I0J-35814D01*
G01X1659086Y652302D01*
G03X1675343Y622300I35814J0D01*
G03X1659086Y592298I19557J-30002D01*
G01X1659086Y512298D01*
G03X1694900Y476484I35814J0D01*
G01X1784900Y476484D01*
G03X1820714Y512298I0J35814D01*
G01X1820714Y592298D01*
G03X1804457Y622300I-35814J0D01*
G03X1820714Y652302I-19557J30002D01*
G01X1820714Y664767D01*
G03X1844518Y685155I-30014J59133D01*
G03X1872304Y671937I27786J22596D01*
G01X1925504Y671937D01*
G03X1946402Y678666I0J35814D01*
G03X1967300Y671937I20898J29085D01*
G01X2020500Y671937D01*
G03X2041398Y678666I0J35814D01*
G03X2062296Y671937I20898J29085D01*
G01X2115496Y671937D01*
G03X2151310Y707751I0J35814D01*
G01X2151310Y753806D01*
G01X2185517Y788013D01*
G03X2225765Y749300I62584J24787D01*
G03X2225765Y622300I22336J-63500D01*
G03X2248101Y491486I22336J-63500D01*
G01X2371601Y491486D01*
G03X2435979Y578462I0J67314D01*
G03X2468100Y558486I32121J15838D01*
G01X2688100Y558486D01*
G03X2720221Y578462I0J35814D01*
G03X2784599Y491486I64378J-19662D01*
G01X2908099Y491486D01*
G03X2956286Y511798I0J67314D01*
G01X2956286Y504913D01*
G03X2984566Y469900I35814J0D01*
G03X2956286Y434887I7534J-35013D01*
G01X2956286Y354240D01*
G03X2992100Y318426I35814J0D01*
G01X3078500Y318426D01*
G03X3114314Y354240I0J35814D01*
G01X3114314Y434887D01*
G03X3086034Y469900I-35814J0D01*
G03X3114314Y504913I-7534J35013D01*
G01X3114314Y522479D01*
G01X3229595Y407198D01*
G03X3263900Y392989I34305J34305D01*
G01X3264722Y392989D01*
G03X3286392Y385689I21670J28514D01*
G01X3414697Y385689D01*
G03X3485346Y308821I61704J-14188D01*
G03X3531675Y402381I-8944J62680D01*
G03X3537207Y421503I-30282J19122D01*
G01X3537207Y461503D01*
G03X3534955Y474002I-35814J0D01*
G03X3537207Y486501I-33562J12499D01*
G01X3537207Y526501D01*
G03X3534955Y539001I-35814J0D01*
G03X3537207Y551500I-33562J12499D01*
G01X3537207Y591500D01*
G03X3534955Y603999I-35814J0D01*
G03X3537207Y616499I-33562J12499D01*
G01X3537207Y656499D01*
G03X3534955Y668998I-35814J0D01*
G03X3537207Y681497I-33562J12499D01*
G01X3537207Y721497D01*
G03X3531675Y740619I-35814J0D01*
G03X3485346Y834179I-55273J30881D01*
G03X3414697Y757311I-8944J-62680D01*
G01X3301862Y757311D01*
G03X3299714Y845310I-50662J42789D01*
G01X3299714Y850821D01*
G03X3304400Y850685I4686J80678D01*
G01X3384400Y850685D01*
G03X3384400Y1012313I0J80814D01*
G01X3304400Y1012313D01*
G03X3244616Y985875I0J-80814D01*
G01X3244616Y997500D01*
G03X3208802Y1033314I-35814J0D01*
G01X3128802Y1033314D01*
G01X3127709Y1033297D01*
G01X3193195Y1098784D01*
G01X3245400Y1098784D01*
G03X3274255Y1113384I0J35814D01*
G01X3282798Y1113384D01*
G03X3326082Y1131313I0J61214D01*
G01X3383385Y1188615D01*
G03X3401314Y1231900I-43285J43285D01*
G01X3401314Y1401549D01*
G03X3415374Y1430000I-21754J28450D01*
G01X3415374Y1516400D01*
G03X3393476Y1549400I-35814J0D01*
G03X3415374Y1582400I-13916J33000D01*
G01X3415374Y1668800D01*
G03X3393476Y1701800I-35814J0D01*
G03X3415374Y1734800I-13916J33000D01*
G01X3415374Y1821200D01*
G03X3379560Y1857014I-35814J0D01*
G01X3298913Y1857014D01*
G03X3277509Y1849915I0J-35814D01*
G03X3254025Y1846710I-2921J-66250D01*
G03X3228887Y1857014I-25137J-25510D01*
G01X3148240Y1857014D01*
G03X3137214Y1855275I0J-35814D01*
G01X3137214Y1969102D01*
G03X3009900Y1975422I-63814J0D01*
G03X2882900Y1975422I-63500J-6320D01*
G03X2755900Y1975422I-63500J-6320D01*
G03X2628900Y1975422I-63500J-6320D01*
G03X2501900Y1975422I-63500J-6320D01*
G03X2374900Y1975422I-63500J-6320D01*
G03X2247900Y1975422I-63500J-6320D01*
G03X2120586Y1969102I-63500J-6320D01*
G01X2120586Y1850601D01*
G03X2138552Y1806214I63814J0D01*
G01X2106840Y1806214D01*
G03X2071026Y1770400I0J-35814D01*
G01X2071026Y1768115D01*
G03X1997344Y1771038I-39026J-53615D01*
G03X1997691Y1776012I-35467J4975D01*
G01X1997691Y1796012D01*
G03X1996266Y1806015I-35814J0D01*
G03X1997691Y1816017I-34389J10003D01*
G01X1997691Y1836017D01*
G03X1996266Y1846020I-35814J0D01*
G03X1997691Y1856022I-34389J10003D01*
G01X1997691Y1876022D01*
G03X1996615Y1884734I-35814J0D01*
G03X2090139Y1882100I48085J45666D01*
G03X2093214Y1975610I-45439J48300D01*
G01X2093214Y2105964D01*
G03X2112814Y2137898I-16214J31933D01*
G01X2112814Y2190102D01*
G01X2142505Y2219793D01*
G03X2156714Y2254098I-34305J34305D01*
G01X2156714Y2367603D01*
G03X2247900Y2418778I27686J57495D01*
G03X2374900Y2418778I63500J6320D01*
G03X2501900Y2418778I63500J6320D01*
G03X2628900Y2418778I63500J6320D01*
G03X2755900Y2418778I63500J6320D01*
G03X2882900Y2418778I63500J6320D01*
G03X3009900Y2418778I63500J6320D01*
G03X3137214Y2425098I63500J6320D01*
G01X3137214Y2543599D01*
G03X3009900Y2549919I-63814J0D01*
G03X2882900Y2549919I-63500J-6320D01*
G03X2755900Y2549919I-63500J-6320D01*
G03X2662256Y2599844I-63500J-6320D01*
G01X2686698Y2624286D01*
G01X2738902Y2624286D01*
G03X2774716Y2660100I0J35814D01*
G01X2774716Y2750100D01*
G03X2751604Y2783586I-35814J0D01*
G01X3860800Y2783586D01*
G02X3951986Y2692400I0J-91186D01*
G01X3951986Y247650D01*
G02X3860800Y156464I-91186J0D01*
G01X3790576Y156464D01*
G03X3731400Y292315I-59176J55037D01*
G01X3651400Y292315D01*
G03X3592223Y156464I0J-80814D01*
G01X3443577Y156464D01*
G03X3384400Y292315I-59176J55037D01*
G01X3304400Y292315D01*
G03X3245224Y156464I0J-80814D01*
G01X3158546Y156464D01*
G03X3159134Y249336I-47046J46736D01*
G03X3066290Y251714I-47634J-46136D01*
G01X2225801Y251714D01*
G01X2054780Y422735D01*
G03X2062296Y421937I7516J35016D01*
G01X2115496Y421937D01*
G03X2151310Y457751I0J35814D01*
G01X2151310Y562252D01*
G03X2115496Y598066I-35814J0D01*
G01X2062296Y598066D01*
G03X2026482Y562252I0J-35814D01*
G01X2026482Y457751D01*
G03X2027279Y450235I35814J0D01*
G01X1961318Y516197D01*
G01X1961318Y562252D01*
G03X1925504Y598066I-35814J0D01*
G01X1872304Y598066D01*
G03X1836490Y562252I0J-35814D01*
G01X1836490Y457751D01*
G03X1872304Y421937I35814J0D01*
G01X1918359Y421937D01*
G01X2171401Y168895D01*
G03X2192692Y156464I34305J34305D01*
G01X184150Y156464D01*
G02X92964Y247650I0J91186D01*
G01X382509Y317500D02*
G03X150881Y317500I-115814J0D01*
G03X382509Y317500I115814J0D01*
G01X3651400Y850685D02*
G01X3731400Y850685D01*
G03X3731400Y1012313I0J80814D01*
G01X3651400Y1012313D01*
G03X3651400Y850685I0J-80814D01*
G54D11*
G01X266703Y2429246D02*
G01X266703Y2455154D01*
G01X186957Y2349500D02*
G01X161049Y2349500D01*
G01X346448Y2349500D02*
G01X372356Y2349500D01*
G01X266695Y397246D02*
G01X266695Y423154D01*
G01X266695Y237754D02*
G01X266695Y211846D01*
G01X186949Y317500D02*
G01X161041Y317500D01*
G01X346441Y317500D02*
G01X372349Y317500D01*
G01X1048046Y2267102D02*
G01X1073954Y2267102D01*
G01X1003300Y2306848D02*
G01X1003300Y2332756D01*
G01X3501139Y701497D02*
G01X3527047Y701497D01*
G01X3286646Y701497D02*
G01X3260738Y701497D01*
G01X3393892Y721243D02*
G01X3393892Y747151D01*
G01X3155654Y1314602D02*
G01X3129746Y1314602D01*
G01X3200400Y1354348D02*
G01X3200400Y1380256D01*
G01X2992354Y394564D02*
G01X2966446Y394564D01*
G01X3078246Y394564D02*
G01X3104154Y394564D01*
G01X3035300Y354494D02*
G01X3035300Y328586D01*
G01X3028798Y907754D02*
G01X3028798Y881846D01*
G01X3068756Y1549400D02*
G01X3094664Y1549400D01*
G01X2844263Y1549400D02*
G01X2818355Y1549400D01*
G01X2184400Y1996848D02*
G01X2184400Y2022756D01*
G01X2156654Y1909851D02*
G01X2130746Y1909851D01*
G01X2469998Y1695154D02*
G01X2469998Y1669246D01*
G01X2430252Y1739900D02*
G01X2404344Y1739900D01*
G01X1911646Y2317902D02*
G01X1937554Y2317902D01*
G01X1987254Y2317902D02*
G01X1961346Y2317902D01*
G01X2032000Y2357648D02*
G01X2032000Y2383556D01*
G01X1618954Y2317902D02*
G01X1593046Y2317902D01*
G01X1663700Y2357648D02*
G01X1663700Y2383556D01*
G01X1707854Y857098D02*
G01X1681946Y857098D01*
G01X1797346Y857098D02*
G01X1823254Y857098D01*
G01X1752600Y817352D02*
G01X1752600Y791444D01*
G01X1454446Y844398D02*
G01X1480354Y844398D01*
G01X1409700Y804652D02*
G01X1409700Y778744D01*
G01X1542754Y844398D02*
G01X1516846Y844398D01*
G01X1632246Y844398D02*
G01X1658154Y844398D01*
G01X1587500Y804652D02*
G01X1587500Y778744D01*
G01X1784646Y552298D02*
G01X1810554Y552298D01*
G01X1695154Y552298D02*
G01X1669246Y552298D01*
G01X1739900Y512552D02*
G01X1739900Y486644D01*
G01X1453854Y2317902D02*
G01X1427946Y2317902D01*
G01X1543346Y2317902D02*
G01X1569254Y2317902D01*
G01X1587886Y1406282D02*
G01X1587886Y1380374D01*
G01X1787632Y1606028D02*
G01X1813540Y1606028D01*
G01X1388140Y1606028D02*
G01X1362232Y1606028D01*
G01X1136802Y2000546D02*
G01X1136802Y2026454D01*
G01X1176548Y1955800D02*
G01X1202456Y1955800D01*
G01X1378246Y2317902D02*
G01X1404154Y2317902D01*
G01X1288754Y2317902D02*
G01X1262846Y2317902D01*
G01X1213146Y2267102D02*
G01X1239054Y2267102D01*
G01X1123654Y2267102D02*
G01X1097746Y2267102D01*
G01X1168400Y2306848D02*
G01X1168400Y2332756D01*
G04 Copper End*

G04 Pad Start*
G54D12*
G01X2610002Y1739900D03*
G01X2469998Y1739900D03*
G54D13*
G01X1739900Y692302D03*
G01X1739900Y552298D03*
G54D12*
G01X3168802Y952500D03*
G01X3028798Y952500D03*
G54D13*
G01X3200400Y1314602D03*
G01X3200400Y1174598D03*
G54D12*
G01X2241398Y2705100D03*
G01X2381402Y2705100D03*
G01X2558898Y2705100D03*
G01X2698902Y2705100D03*
G54D13*
G01X1663700Y2317902D03*
G01X1663700Y2177898D03*
G01X2032000Y2317902D03*
G01X2032000Y2177898D03*
G54D12*
G01X1136802Y1955800D03*
G01X996798Y1955800D03*
G54D13*
G01X1168400Y2267102D03*
G01X1168400Y2127098D03*
G01X1587500Y844398D03*
G01X1587500Y984402D03*
G01X1498600Y2177898D03*
G01X1498600Y2317902D03*
G01X1752600Y857098D03*
G01X1752600Y997102D03*
G01X1866900Y2317902D03*
G01X1866900Y2177898D03*
G01X1409700Y844398D03*
G01X1409700Y984402D03*
G01X1003300Y2267102D03*
G01X1003300Y2127098D03*
G01X1333500Y2317902D03*
G01X1333500Y2177898D03*
G54D14*
G01X1924190Y2476500D03*
G01X1784210Y2476500D03*
G54D15*
G01X3188564Y1778000D03*
G01X3339236Y1778000D03*
G01X3188564Y1625600D03*
G01X3339236Y1625600D03*
G54D17*
G01X3035300Y394564D03*
G01X3035300Y545236D03*
G54D15*
G01X3339236Y1473200D03*
G01X3188564Y1473200D03*
G54D17*
G01X2057400Y1129436D03*
G01X2057400Y978764D03*
G54D15*
G01X2147164Y1727200D03*
G01X2297836Y1727200D03*
G54D17*
G01X1905000Y1129436D03*
G01X1905000Y978764D03*
G54D18*
G01X520695Y317500D03*
G01X520705Y571500D03*
G01X520705Y825500D03*
G01X520705Y1079500D03*
G01X520705Y1333500D03*
G01X520703Y2349500D03*
G01X520703Y2095500D03*
G01X520703Y1841500D03*
G01X520703Y1587500D03*
G01X266703Y1587500D03*
G01X266703Y1841500D03*
G01X266703Y2095500D03*
G01X266703Y2349500D03*
G01X266705Y1333500D03*
G01X266705Y1079500D03*
G01X266705Y825500D03*
G01X266705Y571500D03*
G01X266695Y317500D03*
G54D19*
G01X2088896Y510002D03*
G01X1898904Y510002D03*
G01X1898904Y760001D03*
G01X1993900Y760001D03*
G01X2088896Y760001D03*
G54D20*
G01X2309851Y939800D03*
G01X2309851Y812800D03*
G01X2309851Y685800D03*
G01X2309851Y558800D03*
G01X2846349Y939800D03*
G01X2846349Y812800D03*
G01X2846349Y685800D03*
G01X2846349Y558800D03*
G54D21*
G01X2578100Y749300D03*
G54D22*
G01X2184400Y1909851D03*
G01X2311400Y1909851D03*
G01X2438400Y1909851D03*
G01X2565400Y1909851D03*
G01X2692400Y1909851D03*
G01X2819400Y1909851D03*
G01X2946400Y1909851D03*
G01X3073400Y1909851D03*
G01X2184400Y2484349D03*
G01X2311400Y2484349D03*
G01X2438400Y2484349D03*
G01X2565400Y2484349D03*
G01X2692400Y2484349D03*
G01X2819400Y2484349D03*
G01X2946400Y2484349D03*
G01X3073400Y2484349D03*
G54D23*
G01X2956509Y1168400D03*
G01X2956509Y1295400D03*
G01X2956509Y1422400D03*
G01X2956509Y1549400D03*
G01X2250491Y1168400D03*
G01X2250491Y1295400D03*
G01X2250491Y1422400D03*
G01X2250491Y1549400D03*
G54D24*
G01X1247120Y1866022D03*
G01X1247120Y1826017D03*
G01X1247120Y1786012D03*
G01X1247120Y1746033D03*
G01X1247120Y1706028D03*
G01X1247120Y1666023D03*
G01X1247120Y1626018D03*
G01X1247120Y1586013D03*
G01X1247120Y1546033D03*
G01X1247120Y1506028D03*
G01X1247120Y1466023D03*
G01X1247120Y1426018D03*
G01X1247120Y1386013D03*
G01X1247120Y1346034D03*
G54D25*
G01X1327892Y1265262D03*
G01X1367871Y1265262D03*
G01X1407876Y1265262D03*
G01X1447881Y1265262D03*
G01X1487886Y1265262D03*
G01X1527891Y1265262D03*
G01X1567871Y1265262D03*
G01X1607876Y1265262D03*
G01X1647881Y1265262D03*
G01X1687886Y1265262D03*
G01X1727891Y1265262D03*
G01X1767870Y1265262D03*
G01X1807875Y1265262D03*
G01X1847880Y1265262D03*
G54D24*
G01X1928627Y1346034D03*
G01X1928627Y1386013D03*
G01X1928627Y1426018D03*
G01X1928627Y1466023D03*
G01X1928627Y1506028D03*
G01X1928627Y1546033D03*
G01X1928627Y1586013D03*
G01X1928627Y1626018D03*
G01X1928627Y1666023D03*
G01X1928627Y1706028D03*
G01X1928627Y1746033D03*
G01X1928627Y1786012D03*
G01X1928627Y1826017D03*
G01X1928627Y1866022D03*
G54D25*
G01X1847880Y1946769D03*
G01X1807875Y1946769D03*
G01X1767870Y1946769D03*
G01X1727891Y1946769D03*
G01X1687886Y1946769D03*
G01X1647881Y1946769D03*
G01X1607876Y1946769D03*
G01X1567871Y1946769D03*
G01X1527891Y1946769D03*
G01X1487886Y1946769D03*
G01X1447881Y1946769D03*
G01X1407876Y1946769D03*
G01X1367871Y1946769D03*
G01X1327892Y1946769D03*
G54D26*
G01X1587886Y1606028D03*
G54D27*
G01X3393892Y701497D03*
G01X3393892Y636499D03*
G01X3393892Y571500D03*
G01X3393892Y506501D03*
G01X3393892Y441503D03*
G54D28*
G01X3691400Y931499D03*
G01X3691400Y211501D03*
G01X3344400Y211501D03*
G01X3344400Y931499D03*
G04 Pad End*

G04 Via Start*
G54D29*
G01X1687886Y1606003D03*
G01X1687886Y1706002D03*
G01X1487912Y1606028D03*
G01X1487912Y1706002D03*
G01X1687886Y1506003D03*
G01X1487886Y1506003D03*
G01X1587886Y1606003D03*
G01X1587937Y1506054D03*
G01X1587886Y1706002D03*
G54D30*
G01X2082800Y1498600D03*
G01X2876550Y1339850D03*
G01X2082800Y1358900D03*
G01X2908300Y1181100D03*
G01X1270000Y990600D03*
G01X1638300Y1092200D03*
G01X678361Y1440361D03*
G01X330200Y1460500D03*
G01X1092200Y927100D03*
G01X1473200Y1079500D03*
G01X1028700Y1206500D03*
G01X965200Y1265262D03*
G01X355600Y1155700D03*
G01X630942Y1077168D03*
G01X393700Y1714503D03*
G01X660400Y1701800D03*
G01X850900Y825500D03*
G01X977900Y1485900D03*
G01X876300Y736600D03*
G01X1066800Y1447800D03*
G01X406400Y1955803D03*
G01X1092200Y1612900D03*
G01X152400Y596900D03*
G01X1012845Y1762145D03*
G01X1790700Y723900D03*
G01X1981200Y838200D03*
G01X2247900Y1206500D03*
G01X1953460Y1270000D03*
G01X2297836Y1663700D03*
G01X2032000Y1714500D03*
G01X1854200Y1422400D03*
G01X914400Y2425700D03*
G01X787400Y2197100D03*
G01X2514600Y2628900D03*
G01X1117600Y1828800D03*
G01X2273300Y1909851D03*
G01X1676400Y2032000D03*
G01X2400300Y1909851D03*
G01X1587500Y2070100D03*
G01X1219200Y2082800D03*
G01X1397000Y2057400D03*
G01X1739900Y2451100D03*
G01X1765300Y2197100D03*
G01X3073400Y749300D03*
G01X3274588Y1783665D03*
G01X3289300Y1625600D03*
G01X3162300Y698500D03*
G01X3111500Y203200D03*
G01X3251200Y800100D03*
G01X2247900Y1727200D03*
G01X2044700Y1930400D03*
G01X2846349Y850900D03*
G01X3003550Y933450D03*
G01X1092200Y1955800D03*
G01X1092200Y2209800D03*
G01X1663700Y2374900D03*
G01X1936750Y2381250D03*
G01X3073400Y1498600D03*
G01X3200400Y1358900D03*
G01X2222500Y1803400D03*
G01X2400300Y1765300D03*
G01X1384300Y1816100D03*
G01X2006600Y2273300D03*
G04 Via End*

G04 Track Start*
G54D11*
G01X1928627Y1586013D02*
G01X2213878Y1586013D01*
G01X2250491Y1549400D01*
G01X1928627Y1506028D02*
G01X1986472Y1506028D01*
G01X2070100Y1422400D01*
G01X2250491Y1422400D01*
G01X1928627Y1546033D02*
G01X2035367Y1546033D01*
G01X2082800Y1498600D01*
G01X2876550Y1339850D02*
G01X2921000Y1295400D01*
G01X2956509Y1295400D01*
G01X1928627Y1466023D02*
G01X1975677Y1466023D01*
G01X2082800Y1358900D01*
G01X2908300Y1181100D02*
G01X2921000Y1168400D01*
G01X2956509Y1168400D01*
G01X1928627Y1386013D02*
G01X1930340Y1384300D01*
G01X1993900Y1384300D01*
G01X2011861Y1366339D01*
G01X2011861Y1236297D01*
G01X1905000Y1129436D01*
G01X2057400Y1129436D02*
G01X2082800Y1154836D01*
G01X2082800Y1219200D01*
G01X2159000Y1295400D01*
G01X2250491Y1295400D01*
G01X2692400Y1909851D02*
G01X2692400Y1854200D01*
G01X2908300Y1638300D01*
G01X3175864Y1638300D01*
G01X3188564Y1625600D01*
G01X2819400Y1909851D02*
G01X2819400Y1841500D01*
G01X2882900Y1778000D01*
G01X3188564Y1778000D01*
G01X2956509Y1422400D02*
G01X3137764Y1422400D01*
G01X3188564Y1473200D01*
G01X2381402Y2705100D02*
G01X2438400Y2648102D01*
G01X2438400Y2484349D01*
G01X2698902Y2705100D02*
G01X2565400Y2571598D01*
G01X2565400Y2484349D01*
G01X520705Y1333500D02*
G01X863605Y990600D01*
G01X1270000Y990600D01*
G01X1638300Y1092200D02*
G01X1647881Y1101781D01*
G01X1647881Y1265262D01*
G01X520703Y1587500D02*
G01X546100Y1562103D01*
G01X546100Y1460699D01*
G01X901899Y1104900D01*
G01X1447881Y1136772D02*
G01X1447881Y1265262D01*
G01X901899Y1104900D02*
G01X1416010Y1104900D01*
G01X1447881Y1136772D01*
G01X1407876Y1265262D02*
G01X1407876Y1155700D01*
G01X1392676Y1140500D01*
G01X978221Y1140500D01*
G01X330200Y1460500D02*
G01X266703Y1523997D01*
G01X266703Y1587500D01*
G01X978221Y1140500D02*
G01X678361Y1440361D01*
G01X266705Y1333500D02*
G01X393705Y1206500D01*
G01X596900Y1206500D01*
G01X876300Y927100D01*
G01X1092200Y927100D01*
G01X1473200Y1079500D02*
G01X1487886Y1094186D01*
G01X1487886Y1265262D01*
G01X1028700Y1206500D02*
G01X1054100Y1181100D01*
G01X1358900Y1181100D02*
G01X1367871Y1190071D01*
G01X1367871Y1265262D01*
G01X1054100Y1181100D02*
G01X1358900Y1181100D01*
G01X1327892Y1265262D02*
G01X965200Y1265262D01*
G01X355600Y1155700D02*
G01X279400Y1079500D01*
G01X266705Y1079500D01*
G01X520705Y1079500D02*
G01X628610Y1079500D01*
G01X630942Y1077168D01*
G01X266703Y1841500D02*
G01X393700Y1714503D01*
G01X520705Y825500D02*
G01X850900Y825500D01*
G01X266705Y825500D02*
G01X393705Y698500D01*
G01X838200Y698500D01*
G01X876300Y736600D01*
G01X266703Y2095500D02*
G01X406400Y1955803D01*
G01X660400Y1701800D02*
G01X660400Y1663246D01*
G01X964384Y1359262D01*
G01X1181100Y1359262D01*
G01X1185970Y1364131D01*
G01X1185970Y1367590D01*
G01X1202313Y1383934D01*
G01X1245040Y1383934D01*
G01X1247120Y1386013D01*
G01X1066800Y1447800D02*
G01X1119738Y1394862D01*
G01X1162895Y1394862D01*
G01X1194052Y1426018D02*
G01X1247120Y1426018D01*
G01X1162895Y1394862D02*
G01X1194052Y1426018D01*
G01X977900Y1485900D02*
G01X1022310Y1485900D01*
G01X1042610Y1506200D01*
G01X1090990Y1506200D01*
G01X1125200Y1471990D01*
G01X1125200Y1465600D01*
G01X1126882Y1463918D01*
G01X1245015Y1463918D02*
G01X1247120Y1466023D01*
G01X1126882Y1463918D02*
G01X1245015Y1463918D01*
G01X520703Y2095500D02*
G01X520703Y2031997D01*
G01X1010900Y1541800D01*
G01X1113418Y1541800D01*
G01X1155700Y1499518D01*
G01X1197908Y1499518D01*
G01X1202313Y1503923D01*
G01X1245015Y1503923D01*
G01X1247120Y1506028D01*
G01X1092200Y1612900D02*
G01X1127700Y1577400D01*
G01X1128164Y1577400D01*
G01X1159531Y1546033D01*
G01X1247120Y1546033D01*
G01X1247120Y1626018D02*
G01X1161673Y1626018D01*
G01X1116390Y1671300D01*
G01X1021100Y1671300D01*
G01X660400Y2184400D02*
G01X642439Y2202361D01*
G01X566436Y2202361D01*
G01X565396Y2203400D01*
G01X222009Y2203400D02*
G01X220969Y2202361D01*
G01X177800Y2202361D01*
G01X565396Y2203400D02*
G01X222009Y2203400D01*
G01X177800Y2202361D02*
G01X127000Y2151561D01*
G01X127000Y774700D02*
G01X190500Y711200D01*
G01X1021100Y1671300D02*
G01X660400Y2032000D01*
G01X660400Y2184400D01*
G01X127000Y2151561D02*
G01X127000Y774700D01*
G01X1245015Y1663918D02*
G01X1247120Y1666023D01*
G01X1247120Y1786012D02*
G01X1247120Y1826017D01*
G01X1739900Y692302D02*
G01X1759102Y692302D01*
G01X1790700Y723900D01*
G01X1981200Y838200D02*
G01X1981200Y772701D01*
G01X1993900Y760001D01*
G01X2088896Y760001D02*
G01X2268695Y939800D01*
G01X2309851Y939800D01*
G01X2250491Y1168400D02*
G01X2250491Y1203909D01*
G01X2247900Y1206500D01*
G01X1953460Y1270000D02*
G01X1953460Y1321200D01*
G01X1928627Y1346034D01*
G54D31*
G01X520695Y317500D02*
G01X742798Y317500D01*
G01X1324100Y898802D01*
G01X1324100Y901215D01*
G01X1347883Y924998D01*
G01X1350295Y924998D01*
G01X1409700Y984402D01*
G01X1587500Y984402D02*
G01X1739900Y984402D01*
G01X1752600Y997102D01*
G01X1886661Y997102D01*
G01X1905000Y978764D01*
G01X2057400Y978764D01*
G01X2060854Y978764D01*
G01X2250491Y1168400D01*
G01X3200400Y1174598D02*
G01X3282798Y1174598D01*
G01X3340100Y1231900D01*
G01X3340100Y1472336D01*
G01X3339236Y1473200D01*
G01X1003300Y2127098D02*
G01X1168400Y2127098D01*
G01X520703Y2349500D02*
G01X780898Y2349500D01*
G01X917700Y2212698D01*
G01X917700Y2210285D01*
G01X941483Y2186502D01*
G01X943895Y2186502D01*
G01X1003300Y2127098D01*
G54D11*
G01X266705Y571500D02*
G01X177800Y571500D01*
G01X152400Y596900D01*
G01X2297836Y1727200D02*
G01X2297836Y1663700D01*
G01X2134464Y1714500D02*
G01X2032000Y1714500D01*
G01X2147164Y1727200D02*
G01X2134464Y1714500D01*
G01X1854200Y1422400D02*
G01X1882307Y1422400D01*
G01X1883821Y1423913D01*
G01X1926522Y1423913D01*
G01X1928627Y1426018D01*
G01X1012845Y1762145D02*
G01X1068090Y1706900D01*
G01X1131136Y1706900D01*
G01X1174118Y1663918D01*
G01X1245015Y1663918D01*
G01X787400Y2197100D02*
G01X787400Y2040741D01*
G01X1202313Y1703923D02*
G01X1245015Y1703923D01*
G01X1247120Y1706028D01*
G01X1201767Y1703376D02*
G01X1202313Y1703923D01*
G01X787400Y2040741D02*
G01X1007596Y1820545D01*
G01X1185006Y1703376D02*
G01X1201767Y1703376D01*
G01X1007596Y1820545D02*
G01X1036955Y1820545D01*
G01X1115000Y1742500D01*
G01X1145882Y1742500D01*
G01X1185006Y1703376D01*
G01X2558898Y2705100D02*
G01X2514600Y2660802D01*
G01X2514600Y2628900D01*
G01X1117600Y1828800D02*
G01X1200367Y1746033D01*
G01X1247120Y1746033D01*
G01X1369976Y1901963D02*
G01X1386320Y1885619D01*
G01X1709442Y1885619D01*
G01X1725786Y1901963D01*
G01X1725786Y1944664D01*
G01X1727891Y1946769D01*
G01X2311400Y1909851D02*
G01X2273300Y1909851D01*
G01X1607876Y1988876D02*
G01X1607876Y1946769D01*
G01X1626324Y2007919D02*
G01X1609981Y1991576D01*
G01X1609981Y1990981D01*
G01X1607876Y1988876D01*
G01X1676400Y2032000D02*
G01X1652319Y2007919D01*
G01X1626324Y2007919D01*
G01X2438400Y1909851D02*
G01X2400300Y1909851D01*
G01X1587500Y2070100D02*
G01X1567871Y2050471D01*
G01X1567871Y1946769D01*
G01X2565400Y1909851D02*
G01X2610002Y1865249D01*
G01X2610002Y1739900D01*
G01X1727891Y1946769D02*
G01X1727891Y1994591D01*
G01X1816100Y2082800D01*
G01X1816100Y2165198D01*
G01X1828800Y2177898D01*
G01X1333500Y2177898D02*
G01X1327892Y2172289D01*
G01X1498600Y2077498D02*
G01X1498600Y2177898D01*
G01X1369976Y1991576D02*
G01X1386320Y2007919D01*
G01X1429021Y2007919D01*
G01X1498600Y2077498D01*
G01X1327892Y2037128D02*
G01X1329174Y2035846D01*
G01X1329174Y2033282D01*
G01X1327892Y2032000D01*
G01X1327892Y1946769D01*
G01X1327892Y2172289D02*
G01X1327892Y2037128D01*
G01X1333500Y2177898D02*
G01X1374143Y2177898D01*
G01X1442043Y2245798D01*
G01X1595800Y2245798D01*
G01X1663700Y2177898D01*
G01X1600200Y2425700D02*
G01X1879600Y2705100D01*
G01X914400Y2425700D02*
G01X1600200Y2425700D01*
G01X1174902Y2127098D02*
G01X1219200Y2082800D01*
G01X1397000Y2057400D02*
G01X1369976Y2030376D01*
G01X1369976Y1991576D01*
G01X1367871Y1946769D02*
G01X1365792Y1944690D01*
G01X1291926Y1828122D02*
G01X1249225Y1828122D01*
G01X1247120Y1826017D01*
G01X1365792Y1944690D02*
G01X1365792Y1901988D01*
G01X1291926Y1828122D01*
G01X1527891Y1050209D02*
G01X1574800Y1003300D01*
G01X1527891Y1265262D02*
G01X1527891Y1107399D01*
G01X1531600Y1103690D01*
G01X1531600Y1055310D01*
G01X1527891Y1051601D01*
G01X1527891Y1050209D01*
G54D31*
G01X1409700Y984402D02*
G01X1587500Y984402D01*
G54D11*
G01X1924190Y2476500D02*
G01X1847990Y2400300D01*
G01X1778000Y2400300D01*
G01X1760039Y2382339D01*
G01X2032000Y2177898D02*
G01X2108200Y2254098D01*
G01X2108200Y2438400D01*
G01X2154149Y2484349D01*
G01X2184400Y2484349D01*
G01X1784210Y2476500D02*
G01X1765300Y2476500D01*
G01X1739900Y2451100D01*
G01X1765300Y2197100D02*
G01X1847698Y2197100D01*
G01X1866900Y2177898D01*
G54D31*
G01X1828800Y2177898D02*
G01X1866900Y2177898D01*
G54D11*
G01X1003300Y2127098D02*
G01X1003300Y1962302D01*
G01X996798Y1955800D01*
G01X3200400Y1174598D02*
G01X3067202Y1041400D01*
G01X2374900Y1041400D01*
G01X2250491Y1165809D01*
G01X2250491Y1168400D01*
G01X3393892Y441503D02*
G01X3263900Y441503D01*
G01X2846349Y685800D02*
G01X2946400Y685800D01*
G01X3035300Y596900D01*
G01X3035300Y545236D01*
G01X3263900Y441503D02*
G01X2984500Y720903D01*
G01X2984500Y838200D01*
G01X2882900Y939800D01*
G01X2846349Y939800D01*
G01X3393892Y506501D02*
G01X3252699Y506501D01*
G01X3073400Y685800D01*
G01X3073400Y749300D01*
G01X3274588Y1783665D02*
G01X3333571Y1783665D01*
G01X3339236Y1778000D01*
G01X3339236Y1625600D02*
G01X3289300Y1625600D01*
G01X3162300Y698500D02*
G01X3289300Y571500D01*
G01X3393892Y571500D01*
G01X1898904Y510002D02*
G01X2205706Y203200D01*
G01X3111500Y203200D01*
G01X3251200Y800100D02*
G01X3251200Y870102D01*
G01X3168802Y952500D01*
G01X1898904Y760001D02*
G01X1898904Y946404D01*
G01X1905000Y952500D01*
G01X2297836Y1727200D02*
G01X2247900Y1727200D01*
G01X2044700Y1930400D02*
G01X2044700Y2165198D01*
G01X2032000Y2177898D01*
G01X1879600Y2705100D02*
G01X2241398Y2705100D01*
G01X2846349Y812800D02*
G01X2846349Y850900D01*
G01X3003550Y933450D02*
G01X3022600Y952500D01*
G01X3028798Y952500D01*
G01X1136802Y1955800D02*
G01X1092200Y1955800D01*
G01X1092200Y2209800D02*
G01X1060602Y2209800D01*
G01X1003300Y2267102D01*
G01X1092200Y2209800D02*
G01X1149502Y2267102D01*
G01X1168400Y2267102D01*
G01X1663700Y2317902D02*
G01X1663700Y2374900D01*
G01X1936750Y2381250D02*
G01X1873402Y2317902D01*
G01X1866900Y2317902D01*
G01X1866900Y2177898D02*
G01X2032000Y2177898D01*
G01X1369976Y1991576D02*
G01X1369976Y1901963D01*
G01X2956509Y1549400D02*
G01X3022600Y1549400D01*
G01X3073400Y1498600D01*
G01X3200400Y1358900D02*
G01X3200400Y1314602D01*
G01X2184400Y1909851D02*
G01X2222500Y1871751D01*
G01X2222500Y1803400D01*
G01X2400300Y1765300D02*
G01X2425700Y1739900D01*
G01X2469998Y1739900D01*
G01X1587886Y1606028D02*
G01X1587886Y1612514D01*
G01X1384300Y1816100D01*
G01X2032000Y2317902D02*
G01X2032000Y2298700D01*
G01X2006600Y2273300D01*
G01X190500Y711200D02*
G01X292100Y711200D01*
G01X431800Y571500D01*
G01X520705Y571500D01*
G01X1760039Y2382339D02*
G01X1760039Y2289785D01*
G01X1663700Y2193446D01*
G01X1663700Y2177898D01*
G01X1224415Y1323662D02*
G01X1246953Y1346200D01*
G01X949638Y1323662D02*
G01X1224415Y1323662D01*
G01X520703Y1841500D02*
G01X520703Y1752597D01*
G01X949638Y1323662D01*
G04 Track End*

M02*

