G04 Layer: TopSolderMaskLayer*
G04 EasyEDA Pro v2.2.46.11, 2026-04-01 22:30:00*
G04 Gerber Generator version 0.3*
G04 Scale: 100 percent, Rotated: No, Reflected: No*
G04 Dimensions in millimeters*
G04 Leading zeros omitted, absolute positions, 4 integers and 5 decimals*
G04 Generated by one-click*
%FSLAX45Y45*%
%MOMM*%
%AMRoundRect*1,1,$1,$2,$3*1,1,$1,$4,$5*1,1,$1,0-$2,0-$3*1,1,$1,0-$4,0-$5*20,1,$1,$2,$3,$4,$5,0*20,1,$1,$4,$5,0-$2,0-$3,0*20,1,$1,0-$2,0-$3,0-$4,0-$5,0*20,1,$1,0-$4,0-$5,$2,$3,0*4,1,4,$2,$3,$4,$5,0-$2,0-$3,0-$4,0-$5,$2,$3,0*%
%ADD10RoundRect,0.09131X-0.40514X0.45514X0.40514X0.45514*%
%ADD11RoundRect,0.09131X-0.45514X-0.40514X-0.45514X0.40514*%
%ADD12RoundRect,0.09131X-0.40514X0.43715X0.40514X0.43715*%
%ADD13RoundRect,0.09138X-0.40835X0.43711X0.40835X0.43711*%
%ADD14RoundRect,0.09138X-0.43711X-0.40835X-0.43711X0.40835*%
%ADD15C,1.70002*%
%ADD16RoundRect,0.08756X-0.27302X0.52952X0.27302X0.52952*%
%ADD17O,1.9738X0.7316*%
%ADD18O,1.9666X0.7316*%
%ADD19RoundRect,0.09586X-1.10208X-1.55208X-1.10208X1.55208*%
%ADD20O,0.66159X1.84661*%
%ADD21O,2.35161X0.7316*%
%ADD22RoundRect,0.076X-0.3453X0.1128X0.3453X0.1128*%
%ADD23RoundRect,0.076X-0.1128X0.3453X0.1128X0.3453*%
%ADD24RoundRect,0.09914X-2.00122X2.00122X2.00122X2.00122*%
%ADD25RoundRect,0.08333X-1.08334X-0.20833X-1.08334X0.20833*%
%ADD26O,1.8X1.0*%
G75*


G04 Pad Start*
G54D10*
G01X2610002Y1739900D03*
G01X2469998Y1739900D03*
G54D11*
G01X1739900Y692302D03*
G01X1739900Y552298D03*
G54D10*
G01X3168802Y952500D03*
G01X3028798Y952500D03*
G54D11*
G01X3200400Y1314602D03*
G01X3200400Y1174598D03*
G54D10*
G01X2241398Y2705100D03*
G01X2381402Y2705100D03*
G01X2558898Y2705100D03*
G01X2698902Y2705100D03*
G54D11*
G01X1663700Y2317902D03*
G01X1663700Y2177898D03*
G01X2032000Y2317902D03*
G01X2032000Y2177898D03*
G54D10*
G01X1136802Y1955800D03*
G01X996798Y1955800D03*
G54D11*
G01X1168400Y2267102D03*
G01X1168400Y2127098D03*
G01X1587500Y844398D03*
G01X1587500Y984402D03*
G01X1498600Y2177898D03*
G01X1498600Y2317902D03*
G01X1752600Y857098D03*
G01X1752600Y997102D03*
G01X1866900Y2317902D03*
G01X1866900Y2177898D03*
G01X1409700Y844398D03*
G01X1409700Y984402D03*
G01X1003300Y2267102D03*
G01X1003300Y2127098D03*
G01X1333500Y2317902D03*
G01X1333500Y2177898D03*
G54D12*
G01X1924190Y2476500D03*
G01X1784210Y2476500D03*
G54D13*
G01X3188564Y1778000D03*
G01X3339236Y1778000D03*
G01X3188564Y1625600D03*
G01X3339236Y1625600D03*
G54D14*
G01X3035300Y394564D03*
G01X3035300Y545236D03*
G54D13*
G01X3339236Y1473200D03*
G01X3188564Y1473200D03*
G54D14*
G01X2057400Y1129436D03*
G01X2057400Y978764D03*
G54D13*
G01X2147164Y1727200D03*
G01X2297836Y1727200D03*
G54D14*
G01X1905000Y1129436D03*
G01X1905000Y978764D03*
G54D15*
G01X520695Y317500D03*
G01X520705Y571500D03*
G01X520705Y825500D03*
G01X520705Y1079500D03*
G01X520705Y1333500D03*
G01X520703Y2349500D03*
G01X520703Y2095500D03*
G01X520703Y1841500D03*
G01X520703Y1587500D03*
G01X266703Y1587500D03*
G01X266703Y1841500D03*
G01X266703Y2095500D03*
G01X266703Y2349500D03*
G01X266705Y1333500D03*
G01X266705Y1079500D03*
G01X266705Y825500D03*
G01X266705Y571500D03*
G01X266695Y317500D03*
G54D16*
G01X2088896Y510002D03*
G01X1898904Y510002D03*
G01X1898904Y760001D03*
G01X1993900Y760001D03*
G01X2088896Y760001D03*
G54D18*
G01X2309851Y939800D03*
G01X2309851Y812800D03*
G01X2309851Y685800D03*
G01X2309851Y558800D03*
G01X2846349Y939800D03*
G01X2846349Y812800D03*
G01X2846349Y685800D03*
G01X2846349Y558800D03*
G54D19*
G01X2578100Y749300D03*
G54D20*
G01X2184400Y1909851D03*
G01X2311400Y1909851D03*
G01X2438400Y1909851D03*
G01X2565400Y1909851D03*
G01X2692400Y1909851D03*
G01X2819400Y1909851D03*
G01X2946400Y1909851D03*
G01X3073400Y1909851D03*
G01X2184400Y2484349D03*
G01X2311400Y2484349D03*
G01X2438400Y2484349D03*
G01X2565400Y2484349D03*
G01X2692400Y2484349D03*
G01X2819400Y2484349D03*
G01X2946400Y2484349D03*
G01X3073400Y2484349D03*
G54D21*
G01X2956509Y1168400D03*
G01X2956509Y1295400D03*
G01X2956509Y1422400D03*
G01X2956509Y1549400D03*
G01X2250491Y1168400D03*
G01X2250491Y1295400D03*
G01X2250491Y1422400D03*
G01X2250491Y1549400D03*
G54D22*
G01X1247120Y1866022D03*
G01X1247120Y1826017D03*
G01X1247120Y1786012D03*
G01X1247120Y1746033D03*
G01X1247120Y1706028D03*
G01X1247120Y1666023D03*
G01X1247120Y1626018D03*
G01X1247120Y1586013D03*
G01X1247120Y1546033D03*
G01X1247120Y1506028D03*
G01X1247120Y1466023D03*
G01X1247120Y1426018D03*
G01X1247120Y1386013D03*
G01X1247120Y1346034D03*
G54D23*
G01X1327892Y1265262D03*
G01X1367871Y1265262D03*
G01X1407876Y1265262D03*
G01X1447881Y1265262D03*
G01X1487886Y1265262D03*
G01X1527891Y1265262D03*
G01X1567871Y1265262D03*
G01X1607876Y1265262D03*
G01X1647881Y1265262D03*
G01X1687886Y1265262D03*
G01X1727891Y1265262D03*
G01X1767870Y1265262D03*
G01X1807875Y1265262D03*
G01X1847880Y1265262D03*
G54D22*
G01X1928627Y1346034D03*
G01X1928627Y1386013D03*
G01X1928627Y1426018D03*
G01X1928627Y1466023D03*
G01X1928627Y1506028D03*
G01X1928627Y1546033D03*
G01X1928627Y1586013D03*
G01X1928627Y1626018D03*
G01X1928627Y1666023D03*
G01X1928627Y1706028D03*
G01X1928627Y1746033D03*
G01X1928627Y1786012D03*
G01X1928627Y1826017D03*
G01X1928627Y1866022D03*
G54D23*
G01X1847880Y1946769D03*
G01X1807875Y1946769D03*
G01X1767870Y1946769D03*
G01X1727891Y1946769D03*
G01X1687886Y1946769D03*
G01X1647881Y1946769D03*
G01X1607876Y1946769D03*
G01X1567871Y1946769D03*
G01X1527891Y1946769D03*
G01X1487886Y1946769D03*
G01X1447881Y1946769D03*
G01X1407876Y1946769D03*
G01X1367871Y1946769D03*
G01X1327892Y1946769D03*
G54D24*
G01X1587886Y1606028D03*
G54D25*
G01X3393892Y701497D03*
G01X3393892Y636499D03*
G01X3393892Y571500D03*
G01X3393892Y506501D03*
G01X3393892Y441503D03*
G54D26*
G01X3691400Y931499D03*
G01X3691400Y211501D03*
G01X3344400Y211501D03*
G01X3344400Y931499D03*
G04 Pad End*

M02*

